<?xml version="1.0" encoding="utf-8"?>
<!-- Generator: Adobe Illustrator 23.1.1, SVG Export Plug-In . SVG Version: 6.00 Build 0)  -->
<svg version="1.1" id="Layer_1" xmlns="http://www.w3.org/2000/svg" xmlns:xlink="http://www.w3.org/1999/xlink" x="0px" y="0px"
	 viewBox="0 0 24 24" style="enable-background:new 0 0 24 24;" xml:space="preserve">
<style type="text/css">
	.st0{fill:#080909;}
</style>
<path class="st0" d="M15.14,20.59c-0.43,0-0.79-0.37-0.79-0.82s0.35-0.82,0.79-0.82c0.43,0,0.79,0.37,0.79,0.82
	S15.58,20.59,15.14,20.59z M15.14,22.23c1.3,0,2.36-1.1,2.36-2.46s-1.06-2.46-2.36-2.46c-1.3,0-2.36,1.1-2.36,2.46
	S13.84,22.23,15.14,22.23z M5.72,20.59c-0.43,0-0.79-0.37-0.79-0.82s0.35-0.82,0.79-0.82c0.43,0,0.79,0.37,0.79,0.82
	S6.15,20.59,5.72,20.59z M5.72,22.23c1.3,0,2.36-1.1,2.36-2.46s-1.06-2.46-2.36-2.46s-2.36,1.1-2.36,2.46S4.41,22.23,5.72,22.23z
	 M15.32,14.86H4.93c-0.43,0-0.79,0.37-0.79,0.82c0,0.45,0.35,0.82,0.79,0.82h11c0.36,0,0.67-0.26,0.76-0.62l2.99-12.47h2.53
	c0.43,0,0.79-0.37,0.79-0.82s-0.35-0.82-0.79-0.82h-3.14c-0.37,0-0.68,0.26-0.76,0.62L15.32,14.86z"/>
<path class="st0" d="M5.83,11.59L3,5.04h11.36c0.43,0,0.79-0.37,0.79-0.82s-0.35-0.82-0.79-0.82H1.79c-0.57,0-0.95,0.61-0.72,1.15
	l3.54,8.18c0.12,0.29,0.4,0.48,0.72,0.48h10.61c0.43,0,0.79-0.37,0.79-0.82s-0.35-0.82-0.79-0.82H5.83z"/>
</svg>
