<?xml version="1.0" encoding="utf-8"?>
<!-- Generator: Adobe Illustrator 16.0.0, SVG Export Plug-In . SVG Version: 6.00 Build 0)  -->
<!DOCTYPE svg PUBLIC "-//W3C//DTD SVG 1.1//EN" "http://www.w3.org/Graphics/SVG/1.1/DTD/svg11.dtd">
<svg version="1.1" xmlns="http://www.w3.org/2000/svg" xmlns:xlink="http://www.w3.org/1999/xlink" x="0px" y="0px"  viewBox="0 0 72 72" enable-background="new 0 0 72 72" xml:space="preserve">
<g id="waves_fill" display="none">
</g>
<g id="Layer_7">
</g>
<g id="Layer_1">
</g>
<g id="Layer_2">
	<g>
		<path fill="#24E1DB" d="M57.232,18.645c0.732-0.287,1.256-0.996,1.262-1.827c0.008-1.092-0.875-1.993-1.996-2.01
			c-1.082,0-1.971,0.881-1.982,1.964c-0.006,0.988,0.717,1.813,1.662,1.978c0.621,1.218,3.438,7.694-2.322,15.364l-0.779-0.331
			c-0.225-0.096-0.482-0.016-0.613,0.188c-1.369,2.105-4.039,2.923-6.354,1.946c-2.312-0.979-3.584-3.468-3.021-5.918
			c0.055-0.236-0.07-0.478-0.293-0.571l-1.041-0.441c1.57-9.44,8.033-11.803,9.326-12.181c0.34,0.25,0.744,0.391,1.174,0.391
			c0.527,0,1.021-0.203,1.393-0.571c0.779-0.767,0.787-2.025,0.018-2.809c-0.746-0.751-2.051-0.76-2.805-0.017
			c-0.379,0.373-0.588,0.87-0.592,1.4c-0.002,0.272,0.053,0.536,0.156,0.779c-1.998,0.721-8.014,3.629-9.607,12.609l-0.562-0.238
			c-0.131-0.055-0.281-0.053-0.41,0.009c-0.129,0.061-0.225,0.175-0.266,0.312c-1.047,3.607,0.256,7.412,3.24,9.623
			c-0.012,0.028-0.033,0.055-0.045,0.083l-2.967,7.002c-0.408,0.961-0.234,1.89,0.406,2.162l0.326,0.138
			c-2.352,5.925-7.047,9.672-12.654,10.046c-4.994,0.332-9.666-2.161-11.891-6.355c-3.166-5.973-1.139-14.382,5.537-23.13
			c1.285,1.135,2.971,1.831,4.816,1.831c4.025,0,7.299-3.274,7.299-7.299c0-4.023-3.273-7.297-7.299-7.297
			c-4.023,0-7.297,3.273-7.297,7.297c0,1.812,0.668,3.469,1.766,4.747c-9.562,12.449-7.693,20.57-5.705,24.318
			c2.266,4.272,6.857,6.918,11.883,6.917c0.316,0,0.637-0.011,0.957-0.031c5.998-0.399,11.01-4.374,13.51-10.655l0.4,0.17
			c0.115,0.05,0.236,0.074,0.359,0.074c0.131,0,0.266-0.027,0.398-0.081c0.432-0.173,0.834-0.622,1.08-1.202l2.967-7.002
			c0.014-0.03,0.018-0.067,0.029-0.099c0.467,0.076,0.934,0.126,1.398,0.126c3.145,0,6.17-1.69,7.764-4.484
			c0.07-0.124,0.084-0.272,0.039-0.408c-0.047-0.135-0.146-0.244-0.279-0.3l-0.816-0.347C60.273,27.061,58.121,20.613,57.232,18.645
			z M55.516,16.78c0.006-0.536,0.445-0.973,0.994-0.973c0.547,0.009,0.988,0.458,0.984,1.002c-0.004,0.538-0.443,0.976-0.982,0.976
			v0.011c-0.002-0.001-0.006-0.001-0.01-0.001v-0.01C55.955,17.777,55.512,17.326,55.516,16.78z M51.562,14.51
			c0.184-0.182,0.43-0.282,0.689-0.282c0.266,0,0.516,0.104,0.701,0.291c0.383,0.388,0.379,1.013-0.008,1.394
			c-0.375,0.369-1.023,0.362-1.395-0.01c-0.184-0.187-0.285-0.434-0.283-0.696S51.373,14.695,51.562,14.51z M26.348,16.474
			c3.475,0,6.299,2.825,6.299,6.297c0,3.474-2.824,6.299-6.299,6.299c-3.471,0-6.297-2.825-6.297-6.299
			C20.051,19.299,22.877,16.474,26.348,16.474z M46.451,38.876c-0.002-0.001-0.004,0-0.006,0c-0.002-0.001-0.004-0.003-0.006-0.003
			c-0.027-0.005-0.053,0.002-0.078,0.001c-0.041-0.001-0.08-0.007-0.119,0.002c-0.014,0.003-0.023,0.011-0.037,0.015
			c-0.049,0.014-0.096,0.03-0.137,0.059c-0.023,0.015-0.041,0.038-0.061,0.057c-0.025,0.025-0.055,0.045-0.074,0.075
			c-0.021,0.031-0.033,0.069-0.047,0.106c-0.01,0.023-0.025,0.044-0.031,0.07c0,0.002,0.002,0.003,0,0.005
			c0,0.003-0.002,0.005-0.002,0.007c-0.027,0.137-0.062,0.258-0.107,0.367l-2.969,7.001c-0.193,0.458-0.473,0.664-0.523,0.679
			l-0.869-0.362c-0.008-0.004-0.014-0.011-0.023-0.015c-0.006-0.002-0.012-0.001-0.018-0.003l-0.711-0.297
			c-0.053-0.066-0.102-0.411,0.094-0.871l2.967-7.003c0.047-0.112,0.109-0.221,0.186-0.332c0.002-0.002,0.002-0.005,0.004-0.007
			c0-0.001,0.002-0.002,0.002-0.003c0.014-0.02,0.018-0.043,0.027-0.064c0.018-0.038,0.039-0.074,0.047-0.115
			c0.006-0.027,0-0.055,0.002-0.082c0-0.036,0.006-0.072-0.002-0.108c-0.004-0.028-0.02-0.052-0.029-0.079
			c-0.014-0.033-0.021-0.068-0.041-0.098c-0.014-0.022-0.037-0.039-0.057-0.059c-0.023-0.027-0.045-0.059-0.076-0.081
			c-0.002-0.001-0.006-0.001-0.008-0.003c0-0.001-0.002-0.002-0.002-0.003c-2.729-1.814-4.029-5.067-3.346-8.234l1.633,0.692
			c-0.445,2.785,1.057,5.534,3.686,6.646c2.631,1.113,5.648,0.281,7.34-1.976l1.631,0.692
			C52.908,38.207,49.609,39.565,46.451,38.876z"/>
	</g>
</g>
<g id="Layer_6" display="none">
</g>
<g id="Enter_your_city">
</g>
<g id="De">
</g>
<g id="Dehradun">
</g>
</svg>