<?xml version="1.0" encoding="utf-8"?>
<!-- Generator: Adobe Illustrator 16.0.0, SVG Export Plug-In . SVG Version: 6.00 Build 0)  -->
<!DOCTYPE svg PUBLIC "-//W3C//DTD SVG 1.1//EN" "http://www.w3.org/Graphics/SVG/1.1/DTD/svg11.dtd">
<svg version="1.1" xmlns="http://www.w3.org/2000/svg" xmlns:xlink="http://www.w3.org/1999/xlink" x="0px" y="0px" viewBox="0 0 72 72" enable-background="new 0 0 72 72" xml:space="preserve">
<g id="waves_fill" display="none">
</g>
<g id="Layer_7">
</g>
<g id="Layer_1">
</g>
<g id="Layer_2">
	<g>
		<path fill="#24E1DB" d="M55.5,12.945H23.832c-1.379,0-2.5,1.121-2.5,2.5v6.942H16.5c-1.379,0-2.5,1.121-2.5,2.5v31.667
			c0,1.379,1.121,2.5,2.5,2.5h31.666c1.379,0,2.5-1.121,2.5-2.5v-6.942H55.5c1.379,0,2.5-1.121,2.5-2.5V15.445
			C58,14.066,56.879,12.945,55.5,12.945z M49.666,56.555c0,0.827-0.672,1.5-1.5,1.5H16.5c-0.828,0-1.5-0.673-1.5-1.5V24.888
			c0-0.827,0.672-1.5,1.5-1.5h4.832v23.725c0,1.379,1.121,2.5,2.5,2.5h25.834V56.555z M57,47.112c0,0.827-0.672,1.5-1.5,1.5h-5.334
			H23.832c-0.826,0-1.5-0.673-1.5-1.5V22.888v-7.442c0-0.827,0.674-1.5,1.5-1.5H55.5c0.828,0,1.5,0.673,1.5,1.5V47.112z"/>
		<path fill="#24E1DB" d="M52.018,17.417H40.279c-0.945,0-1.715,0.708-1.715,1.579v8.459c0,0.871,0.77,1.58,1.715,1.58h11.738
			c0.945,0,1.715-0.709,1.715-1.58v-8.459C53.732,18.125,52.963,17.417,52.018,17.417z M52.732,27.455c0,0.32-0.32,0.58-0.715,0.58
			H40.279c-0.395,0-0.715-0.26-0.715-0.58v-8.459c0-0.319,0.32-0.579,0.715-0.579h11.738c0.395,0,0.715,0.26,0.715,0.579V27.455z"/>
		<path fill="#24E1DB" d="M26.102,22.447h9.48c0.277,0,0.5-0.224,0.5-0.5s-0.223-0.5-0.5-0.5h-9.48c-0.277,0-0.5,0.224-0.5,0.5
			S25.824,22.447,26.102,22.447z"/>
		<path fill="#24E1DB" d="M26.102,27.383h9.48c0.277,0,0.5-0.224,0.5-0.5s-0.223-0.5-0.5-0.5h-9.48c-0.277,0-0.5,0.224-0.5,0.5
			S25.824,27.383,26.102,27.383z"/>
		<path fill="#24E1DB" d="M53.232,33.505H26.102c-0.277,0-0.5,0.224-0.5,0.5s0.223,0.5,0.5,0.5h27.131c0.275,0,0.5-0.224,0.5-0.5
			S53.508,33.505,53.232,33.505z"/>
		<path fill="#24E1DB" d="M53.232,38.675H26.102c-0.277,0-0.5,0.224-0.5,0.5s0.223,0.5,0.5,0.5h27.131c0.275,0,0.5-0.224,0.5-0.5
			S53.508,38.675,53.232,38.675z"/>
		<path fill="#24E1DB" d="M42.6,43.846H26.102c-0.277,0-0.5,0.224-0.5,0.5s0.223,0.5,0.5,0.5H42.6c0.277,0,0.5-0.224,0.5-0.5
			S42.877,43.846,42.6,43.846z"/>
	</g>
</g>
<g id="Layer_6" display="none">
</g>
<g id="Enter_your_city">
</g>
<g id="De">
</g>
<g id="Dehradun">
</g>
</svg>
