<?xml version="1.0" encoding="UTF-8" standalone="no"?>
<svg width="72px" height="72px" viewBox="0 0 72 72" version="1.1" xmlns="http://www.w3.org/2000/svg" xmlns:xlink="http://www.w3.org/1999/xlink">
    <!-- Generator: Sketch 39.1 (31720) - http://www.bohemiancoding.com/sketch -->
    <title>online_consultation_icon</title>
    <desc>Created with Sketch.</desc>
    <defs>
        <rect id="path-1" x="0" y="0" width="72" height="72"></rect>
    </defs>
    <g id="Page-1" stroke="none" stroke-width="1" fill="none" fill-rule="evenodd">
        <g id="online_consultation_icon">
            <g>
                <use id="Rectangle-3" fill-opacity="0" fill="#D8D8D8" xlink:href="#path-1"></use>
                <g id="Group-2" transform="translate(15.000000, 11.000000)" fill="#21F4EE">
                    <path d="M42.3006039,36.5597668 C42.1956129,36.5597668 42.090622,36.5597668 41.985631,36.4528669 L36.2111273,32.2837707 L27.0769124,32.2837707 C26.7619395,32.2837707 26.5519575,32.0699708 26.5519575,31.7492711 C26.5519575,31.4285714 26.7619395,31.2147716 27.0769124,31.2147716 L36.4211093,31.2147716 C36.5261002,31.2147716 36.6310912,31.2147716 36.7360822,31.3216715 L41.775649,34.9562682 L41.775649,11.01069 C41.775649,5.98639456 37.7859919,1.92419825 32.8514161,1.92419825 L15.842878,1.92419825 C15.737887,1.92419825 14.5829863,2.03109815 13.8480494,2.24489796 C9.96338331,3.42079689 7.33860891,6.94849368 7.33860891,11.01069 L7.33860891,22.1282799 C7.33860891,22.6627794 7.44359989,23.090379 7.54859086,23.6248785 L7.54859086,23.8386783 C7.54859086,24.159378 7.44359989,24.3731778 7.12862696,24.4800777 C6.81365403,24.4800777 6.60367208,24.3731778 6.49868111,24.0524781 L6.49868111,23.8386783 C6.39369013,23.3041788 6.28869915,22.7696793 6.28869915,22.1282799 L6.28869915,11.01069 C6.28869915,6.41399417 9.22844648,2.45869776 13.6380675,1.17589893 C14.4779953,0.962099125 15.737887,0.855199223 15.842878,0.855199223 L32.8514161,0.855199223 C38.3109468,0.855199223 42.8255588,5.45189504 42.8255588,11.01069 L42.8255588,36.0252672 C42.8255588,36.2390671 42.7205678,36.4528669 42.5105859,36.4528669 C42.5105859,36.5597668 42.4055949,36.5597668 42.3006039,36.5597668 L42.3006039,36.5597668 Z" id="Shape"></path>
                    <path d="M27.6018673,30.1457726 L27.4968763,29.8250729 C27.2868943,28.9698737 27.2868943,28.649174 27.0769124,28.4353741 C25.9220117,25.5490768 22.9822643,23.4110787 19.937526,23.4110787 L7.02363599,23.4110787 L7.02363599,23.4110787 L7.02363599,23.4110787 C3.13896987,23.8386783 0.199222546,27.2594752 0.199222546,31.2147716 L0.199222546,49.8153547 C0.199222546,50.0291545 0.304213522,50.2429543 0.514195474,50.3498542 L0.724177426,50.3498542 C0.829168402,50.3498542 1.03915035,50.3498542 1.14414133,50.2429543 L6.28869915,45.111759 L18.9926072,45.2186589 L21.4073997,45.2186589 C23.1922463,45.2186589 24.7671109,44.5772595 25.8170207,43.4013605 C27.0769124,42.3323615 27.7068583,40.728863 27.7068583,38.8046647 L27.7068583,32.1768707 C27.8118492,32.0699708 27.8118492,31.9630709 27.8118492,31.856171 L27.8118492,31.0009718 C27.7068583,30.6802721 27.6018673,30.3595724 27.6018673,30.1457726 L27.6018673,30.1457726 Z M26.4469665,38.8046647 C26.4469665,39.8736638 26.2369846,41.4771623 24.8721019,42.6530612 C23.7172012,43.9358601 22.2473275,44.1496599 21.1974177,44.1496599 L5.86873525,44.04276 L5.86873525,44.04276 C5.76374427,44.04276 5.55376232,44.1496599 5.44877135,44.1496599 L1.14414133,48.5325559 L1.14414133,31.2147716 C1.14414133,27.7939747 3.66392475,24.9076774 7.02363599,24.4800777 L19.937526,24.4800777 C22.6672914,24.4800777 25.1870748,26.2973761 26.1319936,28.8629738 C26.1319936,28.9698737 26.1319936,28.9698737 26.2369846,28.9698737 C26.2369846,29.0767736 26.3419756,29.5043732 26.5519575,30.0388727 L26.6569485,30.4664723 L26.6569485,30.5733722 C26.6569485,30.6802721 26.5519575,30.787172 26.5519575,30.787172 L26.5519575,31.4285714 C26.4469665,31.5354713 26.4469665,31.6423712 26.4469665,31.7492711 L26.4469665,38.8046647 L26.4469665,38.8046647 Z" id="Shape"></path>
                    <path d="M17.3127516,20.845481 C16.0528599,20.845481 15.1079411,19.8833819 15.1079411,18.6005831 C15.1079411,17.3177843 16.0528599,16.3556851 17.3127516,16.3556851 C18.5726433,16.3556851 19.5175621,17.3177843 19.5175621,18.6005831 C19.5175621,19.8833819 18.5726433,20.845481 17.3127516,20.845481 L17.3127516,20.845481 Z M17.3127516,17.4246842 C16.6828058,17.4246842 16.1578509,17.9591837 16.1578509,18.6005831 C16.1578509,19.2419825 16.6828058,19.776482 17.3127516,19.776482 C17.9426975,19.776482 18.4676524,19.2419825 18.4676524,18.6005831 C18.4676524,17.9591837 17.9426975,17.4246842 17.3127516,17.4246842 L17.3127516,17.4246842 Z" id="Shape"></path>
                    <path d="M24.557129,20.845481 C23.2972373,20.845481 22.3523185,19.8833819 22.3523185,18.6005831 C22.3523185,17.3177843 23.2972373,16.3556851 24.557129,16.3556851 C25.8170207,16.3556851 26.7619395,17.3177843 26.7619395,18.6005831 C26.7619395,19.8833819 25.8170207,20.845481 24.557129,20.845481 L24.557129,20.845481 Z M24.557129,17.4246842 C23.9271831,17.4246842 23.4022282,17.9591837 23.4022282,18.6005831 C23.4022282,19.2419825 23.9271831,19.776482 24.557129,19.776482 C25.1870748,19.776482 25.7120297,19.2419825 25.7120297,18.6005831 C25.7120297,17.9591837 25.1870748,17.4246842 24.557129,17.4246842 L24.557129,17.4246842 Z" id="Shape"></path>
                    <path d="M31.8015063,20.845481 C30.5416146,20.845481 29.5966958,19.8833819 29.5966958,18.6005831 C29.5966958,17.3177843 30.5416146,16.3556851 31.8015063,16.3556851 C33.061398,16.3556851 34.0063168,17.3177843 34.0063168,18.6005831 C34.0063168,19.8833819 33.061398,20.845481 31.8015063,20.845481 L31.8015063,20.845481 Z M31.8015063,17.4246842 C31.1715605,17.4246842 30.6466056,17.9591837 30.6466056,18.6005831 C30.6466056,19.2419825 31.1715605,19.776482 31.8015063,19.776482 C32.4314522,19.776482 32.9564071,19.2419825 32.9564071,18.6005831 C32.9564071,17.9591837 32.4314522,17.4246842 31.8015063,17.4246842 L31.8015063,17.4246842 Z" id="Shape"></path>
                    <path d="M10.4883382,31.5354713 L5.34378037,31.5354713 C5.13379842,31.5354713 4.71383451,31.3216715 4.71383451,31.0009718 C4.71383451,30.787172 4.92381647,30.3595724 5.34378037,30.3595724 L10.4883382,30.3595724 C10.6983201,30.3595724 11.0132931,30.5733722 11.0132931,31.0009718 C11.0132931,31.4285714 10.6983201,31.5354713 10.4883382,31.5354713 L10.4883382,31.5354713 Z M10.4883382,30.787172 L5.34378037,30.787172 C5.34378037,30.787172 5.34378037,30.8940719 5.23878939,30.8940719 L5.34378037,30.8940719 L10.4883382,30.8940719 C10.4883382,30.8940719 10.4883382,30.8940719 10.4883382,30.787172 C10.4883382,30.8940719 10.4883382,30.8940719 10.4883382,30.787172 L10.4883382,30.787172 Z" id="Shape"></path>
                    <path d="M20.147508,35.2769679 L5.34378037,35.2769679 C5.13379842,35.2769679 4.71383451,35.0631681 4.71383451,34.7424684 C4.71383451,34.5286686 4.92381647,34.101069 5.34378037,34.101069 L20.147508,34.101069 C20.3574899,34.101069 20.6724629,34.3148688 20.6724629,34.7424684 L20.6724629,34.8493683 C20.6724629,34.8493683 20.4624809,35.2769679 20.147508,35.2769679 L20.147508,35.2769679 Z M20.147508,34.5286686 L5.34378037,34.5286686 C5.34378037,34.5286686 5.34378037,34.6355685 5.23878939,34.6355685 L5.34378037,34.6355685 L20.147508,34.6355685 C20.147508,34.6355685 20.147508,34.6355685 20.147508,34.5286686 C20.147508,34.6355685 20.147508,34.5286686 20.147508,34.5286686 L20.147508,34.5286686 Z" id="Shape"></path>
                    <path d="M20.147508,39.7667638 L5.34378037,39.7667638 C5.13379842,39.7667638 4.71383451,39.552964 4.71383451,39.1253644 C4.71383451,38.9115646 4.92381647,38.5908649 5.34378037,38.5908649 L20.147508,38.5908649 C20.3574899,38.5908649 20.6724629,38.8046647 20.6724629,39.1253644 L20.6724629,39.2322643 C20.6724629,39.3391642 20.4624809,39.7667638 20.147508,39.7667638 L20.147508,39.7667638 Z M20.147508,39.0184645 L5.34378037,39.0184645 C5.34378037,39.0184645 5.34378037,39.1253644 5.23878939,39.1253644 L5.34378037,39.1253644 L20.147508,39.1253644 C20.147508,39.1253644 20.147508,39.1253644 20.147508,39.0184645 C20.147508,39.1253644 20.147508,39.1253644 20.147508,39.0184645 L20.147508,39.0184645 Z" id="Shape"></path>
                </g>
            </g>
        </g>
    </g>
</svg>