<?xml version="1.0" encoding="utf-8"?>
<!-- Generator: Adobe Illustrator 16.0.0, SVG Export Plug-In . SVG Version: 6.00 Build 0)  -->
<!DOCTYPE svg PUBLIC "-//W3C//DTD SVG 1.1//EN" "http://www.w3.org/Graphics/SVG/1.1/DTD/svg11.dtd">
<svg version="1.1" xmlns="http://www.w3.org/2000/svg" xmlns:xlink="http://www.w3.org/1999/xlink" x="0px" y="0px" viewBox="0 0 72 72" enable-background="new 0 0 72 72" xml:space="preserve">
<g id="waves_fill" display="none">
</g>
<g id="Layer_7">
</g>
<g id="Layer_1">
</g>
<g id="Layer_2">
	<g>
		<path fill="#24E1DB" d="M46.289,42.019c-0.002-0.002-0.002-0.002-0.002-0.004l-4.383-10.217c-0.002-0.006-0.006-0.008-0.008-0.014
			V13.567h1.68c0.275,0,0.5-0.225,0.5-0.5c0-0.277-0.225-0.5-0.5-0.5h-2.18c-0.277,0-0.5,0.223-0.5,0.5v18.928
			c0,0.143,0.062,0.271,0.158,0.361l4.014,9.355H26.932l1.785-4.162h1.832c0.275,0,0.5-0.223,0.5-0.5c0-0.275-0.225-0.5-0.5-0.5
			h-1.404l1.871-4.357c0.031-0.074,0.039-0.152,0.033-0.229V13.067c0-0.277-0.223-0.5-0.5-0.5l0,0l0,0h-2.18
			c-0.277,0-0.5,0.223-0.5,0.5c0,0.275,0.223,0.5,0.5,0.5h1.68v18.336l-2.092,4.879c-0.031,0.047-0.051,0.096-0.064,0.15
			l-8.75,20.398c-0.025,0.062-0.039,0.131-0.039,0.197c0,1.051,0.854,1.904,1.904,1.904h29.984c1.051,0,1.904-0.854,1.904-1.904
			c0-0.066-0.014-0.135-0.039-0.197L46.289,42.019z M50.992,58.433H21.008c-0.467,0-0.854-0.355-0.9-0.812l1.316-3.07h1.91
			c0.275,0,0.5-0.223,0.5-0.5c0-0.275-0.225-0.5-0.5-0.5h-1.48l2.682-6.25h2.068c0.275,0,0.5-0.223,0.5-0.5
			c0-0.275-0.225-0.5-0.5-0.5h-1.641l1.539-3.588h18.994l6.396,14.908C51.846,58.077,51.459,58.433,50.992,58.433z"/>
	</g>
</g>
<g id="Layer_6" display="none">
</g>
<g id="Enter_your_city">
</g>
<g id="De">
</g>
<g id="Dehradun">
</g>
</svg>
