<?xml version="1.0" encoding="UTF-8"?>
<svg width="14px" height="14px" viewBox="0 0 14 14" version="1.1" xmlns="http://www.w3.org/2000/svg" xmlns:xlink="http://www.w3.org/1999/xlink">
    <!-- Generator: Sketch 50.2 (55047) - http://www.bohemiancoding.com/sketch -->
    <title>ICON</title>
    <desc>Created with Sketch.</desc>
    <defs></defs>
    <g id="pharmacy" stroke="none" stroke-width="1" fill="none" fill-rule="evenodd">
        <g id="location" transform="translate(-214.000000, -173.000000)" fill="#767676">
            <g id="Desktop_Lab_Header" transform="translate(0.000000, 98.000000)">
                <g id="labs-search" transform="translate(47.000000, 62.000000)">
                    <g id="Search-box/corner-rectangle">
                        <g id="ICON" transform="translate(167.000000, 13.000000)">
                            <path d="M9.45767879,7.06425152 C9.45767879,8.44961515 8.33513333,9.57067576 6.95273939,9.57067576 C5.56737576,9.57067576 4.4448303,8.44961515 4.4448303,7.06425152 C4.4448303,5.68037273 5.56737576,4.55782727 6.95273939,4.55782727 C8.33513333,4.55782727 9.45767879,5.68037273 9.45767879,7.06425152" id="Fill-1"></path>
                            <path d="M7.05192727,2.9258303 C4.76971515,2.9258303 2.91365455,4.78189091 2.91365455,7.06410303 C2.91365455,9.34631515 4.76971515,11.2038606 7.05192727,11.2038606 C9.33413939,11.2038606 11.1902,9.34631515 11.1902,7.06410303 C11.1902,4.78189091 9.33413939,2.9258303 7.05192727,2.9258303 M7.05192727,11.9462848 C4.36138182,11.9462848 2.1712303,9.75613333 2.1712303,7.06410303 C2.1712303,4.37355758 4.36138182,2.18340606 7.05192727,2.18340606 C9.74247273,2.18340606 11.9326242,4.37355758 11.9326242,7.06410303 C11.9326242,9.75613333 9.74247273,11.9462848 7.05192727,11.9462848" id="Fill-3"></path>
                            <polygon id="Fill-7" points="0.381822066 7.61515346 2.29091297 7.61515346 2.29091297 6.87272921 0.381822066 6.87272921"></polygon>
                            <polygon id="Fill-7" points="11.7939439 7.61515346 13.7030348 7.61515346 13.7030348 6.87272921 11.7939439 6.87272921"></polygon>
                            <polygon id="Fill-10" points="6.74545843 2.29091297 7.48788267 2.29091297 7.48788267 0.381822066 6.74545843 0.381822066"></polygon>
                            <polygon id="Fill-10" points="6.74545843 13.7454584 7.48788267 13.7454584 7.48788267 11.8363675 6.74545843 11.8363675"></polygon>
                        </g>
                    </g>
                </g>
            </g>
        </g>
    </g>
</svg>