<?xml version="1.0" encoding="utf-8"?>
<!-- Generator: Adobe Illustrator 16.0.0, SVG Export Plug-In . SVG Version: 6.00 Build 0)  -->
<!DOCTYPE svg PUBLIC "-//W3C//DTD SVG 1.1//EN" "http://www.w3.org/Graphics/SVG/1.1/DTD/svg11.dtd">
<svg version="1.1" xmlns="http://www.w3.org/2000/svg" xmlns:xlink="http://www.w3.org/1999/xlink" x="0px" y="0px" viewBox="0 0 72 72" enable-background="new 0 0 72 72" xml:space="preserve">
<g id="waves_fill" display="none">
</g>
<g id="Layer_7">
</g>
<g id="Layer_1">
</g>
<g id="Layer_2">
	<g>
		<path fill="#FFFFFF" d="M59.949,47.217c0-6.725-5.471-12.195-12.194-12.195c-6.726,0-12.196,5.471-12.196,12.195
			s5.473,12.196,12.195,12.195C54.479,59.412,59.949,53.94,59.949,47.217z"/>
		<path fill="#11B8C9" d="M43.275,15.311c-1.756-1.755-4.09-2.722-6.572-2.723c-2.48,0.001-4.815,0.968-6.572,2.723l-7.68,7.68
			l-0.002,0.002l-7.676,7.676c-1.756,1.756-2.723,4.092-2.723,6.573c0,2.485,0.967,4.819,2.723,6.573
			c1.754,1.754,4.088,2.721,6.572,2.721c2.482,0,4.816-0.967,6.572-2.721l15.357-15.357C46.9,24.834,46.898,18.934,43.275,15.311z"
			/>
		<g opacity="0.1">
			<path d="M52.391,40.459L40.457,52.392c-0.193,0.194-0.512,0.195-0.707,0c-0.195-0.196-0.193-0.513,0-0.707l11.934-11.933
				c0.193-0.195,0.509-0.195,0.707,0C52.586,39.947,52.584,40.264,52.391,40.459z"/>
		</g>
		<path opacity="0.1" d="M59.949,47.217c0-3.902-1.85-7.374-4.711-9.607c1.615,2.068,2.587,4.663,2.587,7.486
			c0,6.723-5.468,12.194-12.192,12.194c-2.822,0.001-5.418-0.974-7.488-2.589c2.236,2.861,5.707,4.712,9.609,4.711
			C54.479,59.412,59.949,53.94,59.949,47.217z"/>
		<path fill="#0496A5" d="M22.398,23.044l13.144,13.146l7.733-7.732c3.625-3.623,3.623-9.523,0-13.146
			c-1.756-1.755-4.09-2.722-6.572-2.723c-2.48,0.001-4.815,0.968-6.572,2.723l-7.68,7.68l-0.002,0.002L22.398,23.044z"/>
		<path opacity="0.1" d="M43.275,15.311c-0.361-0.361-0.752-0.68-1.158-0.972c2.613,3.63,2.301,8.733-0.964,11.997L25.797,41.692
			c-1.758,1.755-4.092,2.722-6.574,2.721c-1.975,0.001-3.85-0.62-5.42-1.753c0.293,0.404,0.611,0.794,0.971,1.154
			c1.754,1.754,4.088,2.721,6.572,2.721c2.482,0,4.816-0.967,6.572-2.721l15.357-15.357C46.9,24.834,46.898,18.934,43.275,15.311z"
			/>
	</g>
</g>
<g id="Layer_6" display="none">
</g>
<g id="Enter_your_city">
</g>
<g id="De">
</g>
<g id="Dehradun">
</g>
</svg>
