<?xml version="1.0" encoding="utf-8"?>
<!-- Generator: Adobe Illustrator 18.0.0, SVG Export Plug-In . SVG Version: 6.00 Build 0)  -->
<!DOCTYPE svg PUBLIC "-//W3C//DTD SVG 1.1//EN" "http://www.w3.org/Graphics/SVG/1.1/DTD/svg11.dtd">
<svg version="1.1" id="Layer_1" xmlns="http://www.w3.org/2000/svg" xmlns:xlink="http://www.w3.org/1999/xlink" x="0px" y="0px"
	 viewBox="0 0 180 180" enable-background="new 0 0 180 180" xml:space="preserve">
<g>
	<defs>
		<path id="SVGID_119_" d="M72.4,148.2h58.1V81c0-1.5-0.2-2.9-0.6-4.4"/>
	</defs>
	<defs>
		<path id="SVGID_120_" d="M74.2,147"/>
	</defs>
	<defs>
		<path id="SVGID_121_" d="M129.9,76.6c-0.1-0.2-0.1-0.5-0.2-0.8c-0.1-0.4-0.2-0.8-0.4-1.2c-1.9-5.3-6.5-8-6.8-8.2
			c-2.8-1.9-6.1-2.8-9.5-2.8h-30c-9.7,0-17.5,7.9-17.5,17.5v17.7c0,0.4,0.3,0.7,0.7,0.7"/>
	</defs>
	<clipPath id="SVGID_2_">
		<use xlink:href="#SVGID_119_"  overflow="visible"/>
	</clipPath>
	<clipPath id="SVGID_4_" clip-path="url(#SVGID_2_)">
		<use xlink:href="#SVGID_120_"  overflow="visible"/>
	</clipPath>
	<clipPath id="SVGID_6_" clip-path="url(#SVGID_4_)">
		<use xlink:href="#SVGID_121_"  overflow="visible"/>
	</clipPath>
	<g clip-path="url(#SVGID_6_)">
		<defs>
			<rect id="SVGID_125_" x="65.2" y="60.1" width="66.8" height="90.3"/>
		</defs>
		<clipPath id="SVGID_8_">
			<use xlink:href="#SVGID_125_"  overflow="visible"/>
		</clipPath>
		
			<rect x="45.8" y="43.9" clip-path="url(#SVGID_8_)" fill="none" stroke="#24E1DB" stroke-width="2" stroke-miterlimit="10" width="104.3" height="124"/>
		<use xlink:href="#SVGID_125_"  overflow="visible" fill="none" stroke="#24E1DB" stroke-width="2" stroke-miterlimit="10"/>
	</g>
	<use xlink:href="#SVGID_119_"  overflow="visible" fill="none" stroke="#24E1DB" stroke-width="2" stroke-miterlimit="10"/>
	<use xlink:href="#SVGID_120_"  overflow="visible" fill="none" stroke="#24E1DB" stroke-width="2" stroke-miterlimit="10"/>
	<use xlink:href="#SVGID_121_"  overflow="visible" fill="none" stroke="#24E1DB" stroke-width="2" stroke-miterlimit="10"/>
</g>
<g>
	<defs>
		<polygon id="SVGID_127_" points="112.5,62.4 110.3,48.7 82.9,48.7 80.6,62.5 80.4,63.5 112.7,63.5 		"/>
	</defs>
	<clipPath id="SVGID_10_">
		<use xlink:href="#SVGID_127_"  overflow="visible"/>
	</clipPath>
	
		<rect x="60.8" y="31.6" clip-path="url(#SVGID_10_)" fill="none" stroke="#24E1DB" stroke-width="2" stroke-miterlimit="10" width="71.6" height="49"/>
	
		<use xlink:href="#SVGID_127_"  overflow="visible" fill-rule="evenodd" clip-rule="evenodd" fill="none" stroke="#24E1DB" stroke-width="2" stroke-miterlimit="10"/>
</g>
<g>
	<defs>
		<rect id="SVGID_129_" x="93.4" y="38.3" width="5.9" height="10.4"/>
	</defs>
	<clipPath id="SVGID_12_">
		<use xlink:href="#SVGID_129_"  overflow="visible"/>
	</clipPath>
	<g clip-path="url(#SVGID_12_)">
		<defs>
			<rect id="SVGID_131_" x="76.6" y="22.5" width="31.7" height="185.2"/>
		</defs>
		<clipPath id="SVGID_14_">
			<use xlink:href="#SVGID_131_"  overflow="visible"/>
		</clipPath>
		
			<rect x="86.8" y="7.5" clip-path="url(#SVGID_14_)" fill="none" stroke="#24E1DB" stroke-width="2" stroke-miterlimit="10" width="19.1" height="72.1"/>
		<use xlink:href="#SVGID_131_"  overflow="visible" fill="none" stroke="#24E1DB" stroke-width="2" stroke-miterlimit="10"/>
	</g>
	
		<use xlink:href="#SVGID_129_"  overflow="visible" fill-rule="evenodd" clip-rule="evenodd" fill="none" stroke="#24E1DB" stroke-width="2" stroke-miterlimit="10"/>
</g>
<g>
	<defs>
		<path id="SVGID_133_" d="M102.1,30.1C102.1,30.1,102.1,30.2,102.1,30.1c-3.1-0.3-6.2-0.5-9.3-0.5c-8.2,0-16.4,1.3-24.1,3.8
			l-0.9,0.3l4,7.2l0.6-0.2c10.1-2.8,20.9-3.5,31.3-2c0.2,0,0.4-0.1,0.6-0.2c0,0,0,0,0,0c1.3-0.8,2.2-2.3,2.2-3.8
			C106.5,32.1,104.6,30.1,102.1,30.1"/>
	</defs>
	<clipPath id="SVGID_16_">
		<use xlink:href="#SVGID_133_"  overflow="visible"/>
	</clipPath>
	<g clip-path="url(#SVGID_16_)">
		<defs>
			<rect id="SVGID_135_" x="37.5" y="29.6" width="94.2" height="117.8"/>
		</defs>
		<clipPath id="SVGID_18_">
			<use xlink:href="#SVGID_135_"  overflow="visible"/>
		</clipPath>
		
			<rect x="48.2" y="10" clip-path="url(#SVGID_18_)" fill="none" stroke="#24E1DB" stroke-width="2" stroke-miterlimit="10" width="78" height="50.5"/>
		<use xlink:href="#SVGID_135_"  overflow="visible" fill="none" stroke="#24E1DB" stroke-width="2" stroke-miterlimit="10"/>
	</g>
	
		<use xlink:href="#SVGID_133_"  overflow="visible" fill-rule="evenodd" clip-rule="evenodd" fill="none" stroke="#24E1DB" stroke-width="2" stroke-miterlimit="10"/>
</g>
<rect x="95.7" y="86.9" fill="#24E1DB" width="8.6" height="34.5"/>
<rect x="82.7" y="99.8" fill="#24E1DB" width="34.5" height="8.6"/>
<g>
	<path fill="none" stroke="#24E1DB" stroke-width="2" stroke-miterlimit="10" d="M39.2,111.7c0,0.6,0.4,1,1,1h30.7c0.6,0,1-0.4,1-1
		v-11c0-0.6-0.4-1-1-1H40.2c-0.6,0-1,0.4-1,1V111.7z"/>
</g>
<path fill="none" stroke="#24E1DB" stroke-width="2" stroke-miterlimit="10" d="M72.4,121.7c0-0.1,0-0.3,0-0.4
	c0-4.7-3.8-8.5-8.5-8.5H47.2c-4.7,0-8.5,3.8-8.5,8.5c0,0.1,0,0.3,0,0.4h0v26.6h33.6L72.4,121.7L72.4,121.7z"/>
</svg>
