<?xml version="1.0" encoding="UTF-8"?>
<svg width="434px" height="355px" viewBox="0 0 434 355" version="1.1" xmlns="http://www.w3.org/2000/svg" xmlns:xlink="http://www.w3.org/1999/xlink">
    <!-- Generator: Sketch 50.2 (55047) - http://www.bohemiancoding.com/sketch -->
    <title>Step1</title>
    <desc>Created with Sketch.</desc>
    <defs>
        <polygon id="path-1" points="0 376.952875 422.665601 376.952875 422.665601 0 0 0"></polygon>
        <polygon id="path-3" points="0 0.399006748 4.97447559 0.399006748 4.97447559 6.94208878 0 6.94208878"></polygon>
        <path d="M32.8935429,4.75959273 C31.6476857,6.23493818 28.6984286,8.51709091 24.2585143,8.20064 C19.8200571,7.88561455 15.4107429,7.71598545 12.4177714,8.32608 C9.40877143,8.93902545 7.66602857,10.2105309 6.82525714,13.5917091 C6.20742857,16.0734255 6.98991429,18.7518545 7.78114286,20.2699636 C8.57237143,21.7894982 10.7945143,25.6125673 12.3842571,29.4128291 C13.9754571,33.2116655 15.2358857,36.9264 15.2358857,36.9264 C15.2358857,36.9264 13.2279429,37.0318836 11.8932,35.1645382 C10.5584571,33.2986182 8.34505714,30.2367418 7.31485714,29.0721455 L6.28611429,27.9075491 L6.49885714,31.8361018 C6.49885714,31.8361018 4.58708571,31.53248 3.94885714,31.5923491 C2.5704,31.72064 -0.179228571,32.7384145 0.507085714,35.9599418 C1.19485714,39.1800436 2.57914286,39.8143709 4.20094286,40.0951855 C5.82128571,40.3745745 7.25511429,39.7773091 7.25511429,39.7773091 C7.25511429,39.7773091 13.7802,49.1382691 19.2051429,52.6149527 C24.6300857,56.0902109 33.9456,57.0110545 40.3439143,52.8843636 C47.6179714,48.1931927 50.8280571,41.2754618 50.8878,34.2365673 C50.9504571,27.1962473 48.0798857,17.3948218 45.3346286,11.8455273 C43.1838857,7.49504 40.239,1.12325818 37.4136,0.325003636 C37.1469429,0.249454545 36.9006857,0.215243636 36.6748286,0.215243636 C34.4964,0.215243636 34.0242857,3.42251636 32.8935429,4.75959273 Z" id="path-5"></path>
    </defs>
    <g id="Page-1" stroke="none" stroke-width="1" fill="none" fill-rule="evenodd">
        <g id="Artboard-Copy" transform="translate(-213.000000, -1336.000000)">
            <g id="Step1" transform="translate(213.000000, 1321.000000)">
                <circle id="Oval-5" fill="#D8ECF0" cx="154.5" cy="169.5" r="154.5"></circle>
                <g id="Group-14" transform="translate(12.000000, 0.000000)">
                    <path d="M402.287057,90.8577758 L186.709966,90.8577758 L186.709966,38.7675144 C186.709966,35.1046167 189.682398,32.1357417 193.347922,32.1357417 L395.649101,32.1357417 C399.316053,32.1357417 402.287057,35.1046167 402.287057,38.7675144 L402.287057,90.8577758 Z" id="Fill-4" fill="#F4F5F6"></path>
                    <path d="M403.011301,168.807381 L187.43421,168.807381 L187.43421,218.031586 C187.43421,221.694483 190.406643,224.663358 194.072166,224.663358 L396.373345,224.663358 C400.040298,224.663358 403.011301,221.694483 403.011301,218.031586 L403.011301,168.807381 Z" id="Fill-6" fill="#F4F5F6"></path>
                    <mask id="mask-2" fill="white">
                        <use xlink:href="#path-1"></use>
                    </mask>
                    <g id="Clip-9"></g>
                    <polygon id="Fill-8" fill="#ECECEC" mask="url(#mask-2)" points="186.741976 96.4907841 402.126145 96.4907841 402.126145 83.6856364 186.741976 83.6856364"></polygon>
                    <polygon id="Fill-10" fill="#ECECEC" mask="url(#mask-2)" points="187.466507 173.620129 402.850676 173.620129 402.850676 160.814981 187.466507 160.814981"></polygon>
                    <path d="M415.996973,165.666143 L177.249199,165.666143 C174.51399,165.666143 172.296098,163.44984 172.296098,160.71659 L172.296098,96.3752564 C172.296098,93.6405784 174.51399,91.4257034 177.249199,91.4257034 L415.996973,91.4257034 C418.733611,91.4257034 420.951503,93.6405784 420.951503,96.3752564 L420.951503,160.71659 C420.951503,163.44984 418.733611,165.666143 415.996973,165.666143" id="Fill-11" fill="#F4F5F6" mask="url(#mask-2)"></path>
                    <path d="M415.996973,165.666143 L177.249199,165.666143 C174.51399,165.666143 172.296098,163.44984 172.296098,160.71659 L172.296098,96.3752564 C172.296098,93.6405784 174.51399,91.4257034 177.249199,91.4257034 L415.996973,91.4257034 C418.733611,91.4257034 420.951503,93.6405784 420.951503,96.3752564 L420.951503,160.71659 C420.951503,163.44984 418.733611,165.666143 415.996973,165.666143 Z" id="Stroke-12" stroke="#71BFDB" mask="url(#mask-2)"></path>
                    <path d="M166.694063,145.963894 C166.694063,145.963894 172.231647,144.714368 175.447019,142.572322 C178.662391,140.430277 182.16786,136.857345 180.62734,134.539652 C179.225438,132.429023 175.089755,132.933118 171.51712,135.432171 C167.944485,137.931224 166.694063,145.963894 166.694063,145.963894" id="Fill-13" fill="#1080C4" mask="url(#mask-2)"></path>
                </g>
                <path d="M213.443359,47.46875 L216.232422,54.4296875 L219.021484,47.46875 L220.480469,47.46875 L220.480469,56 L219.355469,56 L219.355469,52.6777344 L219.460938,49.0917969 L216.660156,56 L215.798828,56 L213.003906,49.109375 L213.115234,52.6777344 L213.115234,56 L211.990234,56 L211.990234,47.46875 L213.443359,47.46875 Z M224.927734,56.1171875 C224.068355,56.1171875 223.369143,55.8349638 222.830078,55.2705078 C222.291013,54.7060519 222.021484,53.9511766 222.021484,53.0058594 L222.021484,52.8066406 C222.021484,52.1777312 222.1416,51.6162134 222.381836,51.1220703 C222.622072,50.6279272 222.958006,50.2412123 223.389648,49.9619141 C223.821291,49.6826158 224.28906,49.5429688 224.792969,49.5429688 C225.617192,49.5429688 226.25781,49.8144504 226.714844,50.3574219 C227.171877,50.9003933 227.400391,51.6777293 227.400391,52.6894531 L227.400391,53.140625 L223.105469,53.140625 C223.121094,53.7656281 223.303709,54.2705059 223.65332,54.6552734 C224.002931,55.040041 224.447263,55.2324219 224.986328,55.2324219 C225.369143,55.2324219 225.693358,55.1542977 225.958984,54.9980469 C226.224611,54.8417961 226.45703,54.6347669 226.65625,54.3769531 L227.318359,54.8925781 C226.787107,55.7089885 225.99024,56.1171875 224.927734,56.1171875 Z M224.792969,50.4335938 C224.355467,50.4335938 223.988283,50.5927718 223.691406,50.9111328 C223.39453,51.2294938 223.210938,51.6757784 223.140625,52.25 L226.316406,52.25 L226.316406,52.1679688 C226.285156,51.6171847 226.13672,51.1904312 225.871094,50.8876953 C225.605467,50.5849594 225.246096,50.4335938 224.792969,50.4335938 Z M229.679688,49.6601562 L229.714844,50.4570312 C230.199221,49.8476532 230.832027,49.5429688 231.613281,49.5429688 C232.953132,49.5429688 233.628906,50.2988206 233.640625,51.8105469 L233.640625,56 L232.556641,56 L232.556641,51.8046875 C232.552734,51.347654 232.448243,51.0097667 232.243164,50.7910156 C232.038085,50.5722645 231.718752,50.4628906 231.285156,50.4628906 C230.933592,50.4628906 230.625001,50.5566397 230.359375,50.7441406 C230.093749,50.9316416 229.886719,51.1777329 229.738281,51.4824219 L229.738281,56 L228.654297,56 L228.654297,49.6601562 L229.679688,49.6601562 Z M236.746094,48.125 L236.746094,49.6601562 L237.929688,49.6601562 L237.929688,50.4980469 L236.746094,50.4980469 L236.746094,54.4296875 C236.746094,54.683595 236.798828,54.8740228 236.904297,55.0009766 C237.009766,55.1279303 237.189452,55.1914062 237.443359,55.1914062 C237.56836,55.1914062 237.740233,55.167969 237.958984,55.1210938 L237.958984,56 C237.673827,56.0781254 237.396486,56.1171875 237.126953,56.1171875 C236.642576,56.1171875 236.277345,55.9707046 236.03125,55.6777344 C235.785155,55.3847642 235.662109,54.9687527 235.662109,54.4296875 L235.662109,50.4980469 L234.507812,50.4980469 L234.507812,49.6601562 L235.662109,49.6601562 L235.662109,48.125 L236.746094,48.125 Z M243.109375,56 C243.046875,55.8749994 242.996094,55.6523454 242.957031,55.3320312 C242.453122,55.8554714 241.851566,56.1171875 241.152344,56.1171875 C240.527341,56.1171875 240.01465,55.9404315 239.614258,55.5869141 C239.213865,55.2333967 239.013672,54.785159 239.013672,54.2421875 C239.013672,53.5820279 239.264646,53.0693378 239.766602,52.7041016 C240.268557,52.3388654 240.974605,52.15625 241.884766,52.15625 L242.939453,52.15625 L242.939453,51.6582031 C242.939453,51.279295 242.826173,50.9775402 242.599609,50.7529297 C242.373046,50.5283192 242.039065,50.4160156 241.597656,50.4160156 C241.210936,50.4160156 240.88672,50.5136709 240.625,50.7089844 C240.36328,50.9042979 240.232422,51.1406236 240.232422,51.4179688 L239.142578,51.4179688 C239.142578,51.1015609 239.254882,50.7958999 239.479492,50.5009766 C239.704103,50.2060532 240.008787,49.9726571 240.393555,49.8007812 C240.778322,49.6289054 241.20117,49.5429688 241.662109,49.5429688 C242.392582,49.5429688 242.964842,49.7255841 243.378906,50.0908203 C243.792971,50.4560565 244.007812,50.9589812 244.023438,51.5996094 L244.023438,54.5175781 C244.023438,55.0996123 244.097656,55.5624983 244.246094,55.90625 L244.246094,56 L243.109375,56 Z M241.310547,55.1738281 C241.650392,55.1738281 241.972655,55.0859384 242.277344,54.9101562 C242.582033,54.7343741 242.802734,54.5058608 242.939453,54.2246094 L242.939453,52.9238281 L242.089844,52.9238281 C240.761712,52.9238281 240.097656,53.3124961 240.097656,54.0898438 C240.097656,54.4296892 240.210936,54.6953115 240.4375,54.8867188 C240.664064,55.078126 240.955076,55.1738281 241.310547,55.1738281 Z M246.900391,56 L245.816406,56 L245.816406,47 L246.900391,47 L246.900391,56 Z M253.610734,53.3105469 L253.774797,54.4355469 L254.015031,53.421875 L255.702531,47.46875 L256.65175,47.46875 L258.298234,53.421875 L258.532609,54.453125 L258.71425,53.3046875 L260.038469,47.46875 L261.169328,47.46875 L259.100969,56 L258.075578,56 L256.317766,49.7832031 L256.183,49.1328125 L256.048234,49.7832031 L254.225969,56 L253.200578,56 L251.138078,47.46875 L252.263078,47.46875 L253.610734,53.3105469 Z M264.562572,56.1171875 C263.703193,56.1171875 263.003981,55.8349638 262.464916,55.2705078 C261.92585,54.7060519 261.656322,53.9511766 261.656322,53.0058594 L261.656322,52.8066406 C261.656322,52.1777312 261.776438,51.6162134 262.016673,51.1220703 C262.256909,50.6279272 262.592843,50.2412123 263.024486,49.9619141 C263.456129,49.6826158 263.923897,49.5429688 264.427806,49.5429688 C265.252029,49.5429688 265.892648,49.8144504 266.349681,50.3574219 C266.806715,50.9003933 267.035228,51.6777293 267.035228,52.6894531 L267.035228,53.140625 L262.740306,53.140625 C262.755931,53.7656281 262.938547,54.2705059 263.288158,54.6552734 C263.637769,55.040041 264.0821,55.2324219 264.621166,55.2324219 C265.00398,55.2324219 265.328196,55.1542977 265.593822,54.9980469 C265.859448,54.8417961 266.091868,54.6347669 266.291088,54.3769531 L266.953197,54.8925781 C266.421944,55.7089885 265.625077,56.1171875 264.562572,56.1171875 Z M264.427806,50.4335938 C263.990304,50.4335938 263.62312,50.5927718 263.326244,50.9111328 C263.029367,51.2294938 262.845775,51.6757784 262.775463,52.25 L265.951244,52.25 L265.951244,52.1679688 C265.919994,51.6171847 265.771558,51.1904312 265.505931,50.8876953 C265.240305,50.5849594 264.880934,50.4335938 264.427806,50.4335938 Z M269.466869,56 L268.382884,56 L268.382884,47 L269.466869,47 L269.466869,56 Z M272.378978,56 L271.294994,56 L271.294994,47 L272.378978,47 L272.378978,56 Z M275.138744,49.6601562 L275.1739,50.4570312 C275.658277,49.8476532 276.291084,49.5429688 277.072338,49.5429688 C278.412188,49.5429688 279.087962,50.2988206 279.099681,51.8105469 L279.099681,56 L278.015697,56 L278.015697,51.8046875 C278.011791,51.347654 277.907299,51.0097667 277.70222,50.7910156 C277.497141,50.5722645 277.177808,50.4628906 276.744213,50.4628906 C276.392648,50.4628906 276.084058,50.5566397 275.818431,50.7441406 C275.552805,50.9316416 275.345776,51.1777329 275.197338,51.4824219 L275.197338,56 L274.113353,56 L274.113353,49.6601562 L275.138744,49.6601562 Z M283.365306,56.1171875 C282.505927,56.1171875 281.806715,55.8349638 281.26765,55.2705078 C280.728585,54.7060519 280.459056,53.9511766 280.459056,53.0058594 L280.459056,52.8066406 C280.459056,52.1777312 280.579172,51.6162134 280.819408,51.1220703 C281.059643,50.6279272 281.395578,50.2412123 281.82722,49.9619141 C282.258863,49.6826158 282.726632,49.5429688 283.230541,49.5429688 C284.054763,49.5429688 284.695382,49.8144504 285.152416,50.3574219 C285.609449,50.9003933 285.837963,51.6777293 285.837963,52.6894531 L285.837963,53.140625 L281.543041,53.140625 C281.558666,53.7656281 281.741281,54.2705059 282.090892,54.6552734 C282.440503,55.040041 282.884835,55.2324219 283.4239,55.2324219 C283.806714,55.2324219 284.13093,55.1542977 284.396556,54.9980469 C284.662183,54.8417961 284.894602,54.6347669 285.093822,54.3769531 L285.755931,54.8925781 C285.224679,55.7089885 284.427812,56.1171875 283.365306,56.1171875 Z M283.230541,50.4335938 C282.793038,50.4335938 282.425855,50.5927718 282.128978,50.9111328 C281.832102,51.2294938 281.64851,51.6757784 281.578197,52.25 L284.753978,52.25 L284.753978,52.1679688 C284.722728,51.6171847 284.574292,51.1904312 284.308666,50.8876953 C284.043039,50.5849594 283.683668,50.4335938 283.230541,50.4335938 Z M290.783275,54.3183594 C290.783275,54.0253892 290.672925,53.7978524 290.45222,53.6357422 C290.231516,53.473632 289.846754,53.333985 289.297923,53.2167969 C288.749093,53.0996088 288.31355,52.9589852 287.991283,52.7949219 C287.669016,52.6308586 287.430737,52.435548 287.276439,52.2089844 C287.122141,51.9824207 287.044994,51.7128922 287.044994,51.4003906 C287.044994,50.8808568 287.264718,50.441408 287.704173,50.0820312 C288.143629,49.7226545 288.705147,49.5429688 289.388744,49.5429688 C290.107497,49.5429688 290.690499,49.7285138 291.137767,50.0996094 C291.585035,50.470705 291.808666,50.9453096 291.808666,51.5234375 L290.718822,51.5234375 C290.718822,51.226561 290.592847,50.9707042 290.340892,50.7558594 C290.088938,50.5410146 289.771558,50.4335938 289.388744,50.4335938 C288.994211,50.4335938 288.68562,50.5195304 288.462963,50.6914062 C288.240305,50.8632821 288.128978,51.0878892 288.128978,51.3652344 C288.128978,51.6269544 288.232493,51.8242181 288.439525,51.9570312 C288.646557,52.0898444 289.020577,52.2167963 289.561595,52.3378906 C290.102614,52.458985 290.541086,52.6035148 290.877025,52.7714844 C291.212964,52.939454 291.461985,53.1416004 291.624095,53.3779297 C291.786205,53.614259 291.867259,53.9023421 291.867259,54.2421875 C291.867259,54.8085966 291.640699,55.2626936 291.187572,55.6044922 C290.734445,55.9462908 290.14656,56.1171875 289.4239,56.1171875 C288.916085,56.1171875 288.466871,56.0273446 288.076244,55.8476562 C287.685617,55.6679679 287.379956,55.4169938 287.159252,55.0947266 C286.938547,54.7724593 286.828197,54.42383 286.828197,54.0488281 L287.912181,54.0488281 C287.931713,54.4121112 288.077219,54.7001942 288.348705,54.9130859 C288.62019,55.1259776 288.978585,55.2324219 289.4239,55.2324219 C289.834058,55.2324219 290.163157,55.1494149 290.411205,54.9833984 C290.659253,54.817382 290.783275,54.5957045 290.783275,54.3183594 Z M296.970775,54.3183594 C296.970775,54.0253892 296.860425,53.7978524 296.63972,53.6357422 C296.419016,53.473632 296.034254,53.333985 295.485423,53.2167969 C294.936593,53.0996088 294.50105,52.9589852 294.178783,52.7949219 C293.856516,52.6308586 293.618237,52.435548 293.463939,52.2089844 C293.309641,51.9824207 293.232494,51.7128922 293.232494,51.4003906 C293.232494,50.8808568 293.452218,50.441408 293.891673,50.0820312 C294.331129,49.7226545 294.892647,49.5429688 295.576244,49.5429688 C296.294997,49.5429688 296.877999,49.7285138 297.325267,50.0996094 C297.772535,50.470705 297.996166,50.9453096 297.996166,51.5234375 L296.906322,51.5234375 C296.906322,51.226561 296.780347,50.9707042 296.528392,50.7558594 C296.276438,50.5410146 295.959058,50.4335938 295.576244,50.4335938 C295.181711,50.4335938 294.87312,50.5195304 294.650463,50.6914062 C294.427805,50.8632821 294.316478,51.0878892 294.316478,51.3652344 C294.316478,51.6269544 294.419993,51.8242181 294.627025,51.9570312 C294.834057,52.0898444 295.208077,52.2167963 295.749095,52.3378906 C296.290114,52.458985 296.728586,52.6035148 297.064525,52.7714844 C297.400464,52.939454 297.649485,53.1416004 297.811595,53.3779297 C297.973705,53.614259 298.054759,53.9023421 298.054759,54.2421875 C298.054759,54.8085966 297.828199,55.2626936 297.375072,55.6044922 C296.921945,55.9462908 296.33406,56.1171875 295.6114,56.1171875 C295.103585,56.1171875 294.654371,56.0273446 294.263744,55.8476562 C293.873117,55.6679679 293.567456,55.4169938 293.346752,55.0947266 C293.126047,54.7724593 293.015697,54.42383 293.015697,54.0488281 L294.099681,54.0488281 C294.119213,54.4121112 294.264719,54.7001942 294.536205,54.9130859 C294.80769,55.1259776 295.166085,55.2324219 295.6114,55.2324219 C296.021558,55.2324219 296.350657,55.1494149 296.598705,54.9833984 C296.846753,54.817382 296.970775,54.5957045 296.970775,54.3183594 Z" id="Mental-Wellness" fill="#616261"></path>
                <path d="M220.289062,195.880859 C219.999999,196.294924 219.596682,196.604491 219.079102,196.80957 C218.561521,197.014649 217.958988,197.117188 217.271484,197.117188 C216.576168,197.117188 215.958987,196.954103 215.419922,196.62793 C214.880857,196.301756 214.463869,195.837894 214.168945,195.236328 C213.874022,194.634763 213.722656,193.937504 213.714844,193.144531 L213.714844,192.400391 C213.714844,191.115228 214.014645,190.119144 214.614258,189.412109 C215.21387,188.705075 216.056635,188.351562 217.142578,188.351562 C218.033208,188.351562 218.749997,188.579099 219.292969,189.03418 C219.83594,189.48926 220.167968,190.134761 220.289062,190.970703 L219.164062,190.970703 C218.953124,189.841791 218.281256,189.277344 217.148438,189.277344 C216.394527,189.277344 215.823244,189.54199 215.43457,190.071289 C215.045896,190.600589 214.849609,191.367182 214.845703,192.371094 L214.845703,193.068359 C214.845703,194.025395 215.064451,194.78613 215.501953,195.350586 C215.939455,195.915042 216.531246,196.197266 217.277344,196.197266 C217.699221,196.197266 218.068358,196.150391 218.384766,196.056641 C218.701173,195.96289 218.96289,195.804689 219.169922,195.582031 L219.169922,193.666016 L217.195312,193.666016 L217.195312,192.751953 L220.289062,192.751953 L220.289062,195.880859 Z M224.625,197.117188 C223.765621,197.117188 223.066409,196.834964 222.527344,196.270508 C221.988279,195.706052 221.71875,194.951177 221.71875,194.005859 L221.71875,193.806641 C221.71875,193.177731 221.838866,192.616213 222.079102,192.12207 C222.319337,191.627927 222.655271,191.241212 223.086914,190.961914 C223.518557,190.682616 223.986326,190.542969 224.490234,190.542969 C225.314457,190.542969 225.955076,190.81445 226.412109,191.357422 C226.869143,191.900393 227.097656,192.677729 227.097656,193.689453 L227.097656,194.140625 L222.802734,194.140625 C222.818359,194.765628 223.000975,195.270506 223.350586,195.655273 C223.700197,196.040041 224.144529,196.232422 224.683594,196.232422 C225.066408,196.232422 225.390624,196.154298 225.65625,195.998047 C225.921876,195.841796 226.154296,195.634767 226.353516,195.376953 L227.015625,195.892578 C226.484372,196.708988 225.687505,197.117188 224.625,197.117188 Z M224.490234,191.433594 C224.052732,191.433594 223.685548,191.592772 223.388672,191.911133 C223.091795,192.229494 222.908203,192.675778 222.837891,193.25 L226.013672,193.25 L226.013672,193.167969 C225.982422,192.617185 225.833986,192.190431 225.568359,191.887695 C225.302733,191.584959 224.943362,191.433594 224.490234,191.433594 Z M229.822266,189.125 L229.822266,190.660156 L231.005859,190.660156 L231.005859,191.498047 L229.822266,191.498047 L229.822266,195.429688 C229.822266,195.683595 229.874999,195.874023 229.980469,196.000977 C230.085938,196.12793 230.265624,196.191406 230.519531,196.191406 C230.644532,196.191406 230.816405,196.167969 231.035156,196.121094 L231.035156,197 C230.749999,197.078125 230.472658,197.117188 230.203125,197.117188 C229.718748,197.117188 229.353517,196.970705 229.107422,196.677734 C228.861327,196.384764 228.738281,195.968753 228.738281,195.429688 L228.738281,191.498047 L227.583984,191.498047 L227.583984,190.660156 L228.738281,190.660156 L228.738281,189.125 L229.822266,189.125 Z M237.921281,193.197266 C236.956433,192.91992 236.254291,192.579104 235.814836,192.174805 C235.375381,191.770506 235.155656,191.271487 235.155656,190.677734 C235.155656,190.005856 235.424208,189.450198 235.96132,189.010742 C236.498432,188.571287 237.196668,188.351562 238.056047,188.351562 C238.641987,188.351562 239.164443,188.464843 239.62343,188.691406 C240.082416,188.91797 240.437882,189.230467 240.689836,189.628906 C240.94179,190.027346 241.067766,190.462888 241.067766,190.935547 L239.936906,190.935547 C239.936906,190.419919 239.772845,190.01465 239.444719,189.719727 C239.116592,189.424803 238.653706,189.277344 238.056047,189.277344 C237.501357,189.277344 237.068744,189.399413 236.758195,189.643555 C236.447647,189.887697 236.292375,190.22656 236.292375,190.660156 C236.292375,191.007814 236.439834,191.301757 236.734758,191.541992 C237.029681,191.782228 237.531629,192.001952 238.240617,192.201172 C238.949605,192.400392 239.504287,192.620116 239.90468,192.860352 C240.305072,193.100587 240.601944,193.380858 240.795305,193.701172 C240.988665,194.021486 241.085344,194.398435 241.085344,194.832031 C241.085344,195.523441 240.815815,196.077146 240.27675,196.493164 C239.737685,196.909182 239.016989,197.117188 238.114641,197.117188 C237.5287,197.117188 236.981831,197.004884 236.474016,196.780273 C235.966201,196.555663 235.574603,196.248049 235.299211,195.857422 C235.023819,195.466795 234.886125,195.02344 234.886125,194.527344 L236.016984,194.527344 C236.016984,195.042971 236.207412,195.450194 236.588273,195.749023 C236.969135,196.047853 237.477919,196.197266 238.114641,196.197266 C238.708394,196.197266 239.163467,196.076173 239.479875,195.833984 C239.796283,195.591796 239.954484,195.261721 239.954484,194.84375 C239.954484,194.425779 239.808001,194.10254 239.515031,193.874023 C239.222061,193.645507 238.690816,193.419923 237.921281,193.197266 Z M244.987687,197.117188 C244.128308,197.117188 243.429096,196.834964 242.890031,196.270508 C242.350966,195.706052 242.081437,194.951177 242.081437,194.005859 L242.081437,193.806641 C242.081437,193.177731 242.201553,192.616213 242.441789,192.12207 C242.682025,191.627927 243.017959,191.241212 243.449602,190.961914 C243.881244,190.682616 244.349013,190.542969 244.852922,190.542969 C245.677145,190.542969 246.317763,190.81445 246.774797,191.357422 C247.23183,191.900393 247.460344,192.677729 247.460344,193.689453 L247.460344,194.140625 L243.165422,194.140625 C243.181047,194.765628 243.363662,195.270506 243.713273,195.655273 C244.062885,196.040041 244.507216,196.232422 245.046281,196.232422 C245.429096,196.232422 245.753311,196.154298 246.018937,195.998047 C246.284564,195.841796 246.516983,195.634767 246.716203,195.376953 L247.378312,195.892578 C246.84706,196.708988 246.050193,197.117188 244.987687,197.117188 Z M244.852922,191.433594 C244.41542,191.433594 244.048236,191.592772 243.751359,191.911133 C243.454483,192.229494 243.270891,192.675778 243.200578,193.25 L246.376359,193.25 L246.376359,193.167969 C246.345109,192.617185 246.196673,192.190431 245.931047,191.887695 C245.665421,191.584959 245.306049,191.433594 244.852922,191.433594 Z M251.257219,196.232422 C251.643939,196.232422 251.981827,196.115236 252.270891,195.880859 C252.559955,195.646483 252.720109,195.353517 252.751359,195.001953 L253.77675,195.001953 C253.757219,195.365236 253.63222,195.710936 253.40175,196.039062 C253.17128,196.367189 252.863666,196.628905 252.478898,196.824219 C252.094131,197.019532 251.686908,197.117188 251.257219,197.117188 C250.393933,197.117188 249.707417,196.829104 249.197648,196.25293 C248.68788,195.676755 248.433,194.888677 248.433,193.888672 L248.433,193.707031 C248.433,193.089841 248.54628,192.541018 248.772844,192.060547 C248.999407,191.580076 249.324599,191.207033 249.74843,190.941406 C250.17226,190.67578 250.673231,190.542969 251.251359,190.542969 C251.9623,190.542969 252.553115,190.755857 253.02382,191.181641 C253.494526,191.607424 253.7455,192.160153 253.77675,192.839844 L252.751359,192.839844 C252.720109,192.429685 252.564837,192.092775 252.285539,191.829102 C252.006241,191.565428 251.661518,191.433594 251.251359,191.433594 C250.700575,191.433594 250.273822,191.631834 249.971086,192.02832 C249.66835,192.424807 249.516984,192.998043 249.516984,193.748047 L249.516984,193.953125 C249.516984,194.683597 249.667373,195.246092 249.968156,195.640625 C250.268939,196.035158 250.698622,196.232422 251.257219,196.232422 Z M254.708391,193.771484 C254.708391,193.150388 254.83046,192.591799 255.074602,192.095703 C255.318743,191.599607 255.658584,191.216798 256.094133,190.947266 C256.529682,190.677733 257.026747,190.542969 257.585344,190.542969 C258.448629,190.542969 259.146865,190.841794 259.68007,191.439453 C260.213276,192.037112 260.479875,192.832026 260.479875,193.824219 L260.479875,193.900391 C260.479875,194.517581 260.361712,195.071287 260.125383,195.561523 C259.889054,196.05176 259.551166,196.433592 259.111711,196.707031 C258.672256,196.98047 258.167378,197.117188 257.597062,197.117188 C256.737683,197.117188 256.041401,196.818362 255.508195,196.220703 C254.97499,195.623044 254.708391,194.832036 254.708391,193.847656 L254.708391,193.771484 Z M255.798234,193.900391 C255.798234,194.603519 255.961319,195.167967 256.287492,195.59375 C256.613666,196.019533 257.050185,196.232422 257.597062,196.232422 C258.147847,196.232422 258.585342,196.016604 258.909562,195.584961 C259.233783,195.153318 259.395891,194.548832 259.395891,193.771484 C259.395891,193.076168 259.230853,192.512697 258.900773,192.081055 C258.570694,191.649412 258.132221,191.433594 257.585344,191.433594 C257.050185,191.433594 256.618549,191.646482 256.290422,192.072266 C255.962295,192.498049 255.798234,193.107418 255.798234,193.900391 Z M262.864641,190.660156 L262.899797,191.457031 C263.384174,190.847653 264.01698,190.542969 264.798234,190.542969 C266.138085,190.542969 266.813859,191.298821 266.825578,192.810547 L266.825578,197 L265.741594,197 L265.741594,192.804688 C265.737687,192.347654 265.633196,192.009767 265.428117,191.791016 C265.223038,191.572265 264.903705,191.462891 264.470109,191.462891 C264.118545,191.462891 263.809954,191.55664 263.544328,191.744141 C263.278702,191.931642 263.071673,192.177733 262.923234,192.482422 L262.923234,197 L261.83925,197 L261.83925,190.660156 L262.864641,190.660156 Z M268.196672,193.777344 C268.196672,192.804683 268.427138,192.022464 268.888078,191.430664 C269.349018,190.838864 269.952528,190.542969 270.698625,190.542969 C271.440816,190.542969 272.028701,190.796872 272.462297,191.304688 L272.462297,188 L273.546281,188 L273.546281,197 L272.550187,197 L272.497453,196.320312 C272.063857,196.851565 271.460348,197.117188 270.686906,197.117188 C269.952528,197.117188 269.353901,196.816409 268.891008,196.214844 C268.428115,195.613278 268.196672,194.82813 268.196672,193.859375 L268.196672,193.777344 Z M269.280656,193.900391 C269.280656,194.619144 269.429092,195.181639 269.725969,195.587891 C270.022845,195.994143 270.432997,196.197266 270.956437,196.197266 C271.643941,196.197266 272.145889,195.888675 272.462297,195.271484 L272.462297,192.359375 C272.138077,191.761716 271.640035,191.462891 270.968156,191.462891 C270.436904,191.462891 270.022845,191.667967 269.725969,192.078125 C269.429092,192.488283 269.280656,193.095699 269.280656,193.900391 Z M284.926547,193.009766 C284.926547,193.845707 284.785923,194.575192 284.504672,195.198242 C284.22342,195.821292 283.824987,196.296873 283.309359,196.625 C282.793732,196.953127 282.192175,197.117188 281.504672,197.117188 C280.832794,197.117188 280.237096,196.95215 279.717562,196.62207 C279.198029,196.291991 278.794712,195.821292 278.507602,195.209961 C278.220491,194.59863 278.073031,193.890629 278.065219,193.085938 L278.065219,192.470703 C278.065219,191.650387 278.207795,190.925784 278.492953,190.296875 C278.778111,189.667966 279.181427,189.186525 279.702914,188.852539 C280.224401,188.518553 280.821075,188.351562 281.492953,188.351562 C282.17655,188.351562 282.779083,188.5166 283.30057,188.84668 C283.822057,189.176759 284.22342,189.65527 284.504672,190.282227 C284.785923,190.909183 284.926547,191.638668 284.926547,192.470703 L284.926547,193.009766 Z M283.807406,192.458984 C283.807406,191.447261 283.604283,190.670901 283.198031,190.129883 C282.791779,189.588864 282.223426,189.318359 281.492953,189.318359 C280.782012,189.318359 280.222447,189.588864 279.814242,190.129883 C279.406037,190.670901 279.196078,191.42187 279.184359,192.382812 L279.184359,193.009766 C279.184359,193.990239 279.390412,194.760739 279.802523,195.321289 C280.214635,195.881839 280.782012,196.162109 281.504672,196.162109 C282.231238,196.162109 282.793732,195.897464 283.192172,195.368164 C283.590611,194.838865 283.795687,194.080083 283.807406,193.091797 L283.807406,192.458984 Z M291.799594,193.900391 C291.799594,194.865239 291.578893,195.642575 291.137484,196.232422 C290.696076,196.822269 290.098426,197.117188 289.344516,197.117188 C288.574981,197.117188 287.969518,196.873049 287.528109,196.384766 L287.528109,199.4375 L286.444125,199.4375 L286.444125,190.660156 L287.434359,190.660156 L287.487094,191.363281 C287.928502,190.816404 288.541777,190.542969 289.326937,190.542969 C290.08866,190.542969 290.691193,190.830075 291.134555,191.404297 C291.577916,191.978518 291.799594,192.777339 291.799594,193.800781 L291.799594,193.900391 Z M290.715609,193.777344 C290.715609,193.062496 290.563267,192.498049 290.258578,192.083984 C289.953889,191.66992 289.535925,191.462891 289.004672,191.462891 C288.348419,191.462891 287.856236,191.753903 287.528109,192.335938 L287.528109,195.365234 C287.85233,195.943362 288.348419,196.232422 289.016391,196.232422 C289.535924,196.232422 289.949006,196.026369 290.255648,195.614258 C290.562291,195.202146 290.715609,194.589848 290.715609,193.777344 Z M294.354281,197 L293.270297,197 L293.270297,190.660156 L294.354281,190.660156 L294.354281,197 Z M293.182406,188.978516 C293.182406,188.802733 293.236117,188.654297 293.343539,188.533203 C293.450961,188.412109 293.61014,188.351562 293.821078,188.351562 C294.032017,188.351562 294.192171,188.412109 294.301547,188.533203 C294.410922,188.654297 294.465609,188.802733 294.465609,188.978516 C294.465609,189.154298 294.410922,189.300781 294.301547,189.417969 C294.192171,189.535157 294.032017,189.59375 293.821078,189.59375 C293.61014,189.59375 293.450961,189.535157 293.343539,189.417969 C293.236117,189.300781 293.182406,189.154298 293.182406,188.978516 Z M297.114047,190.660156 L297.149203,191.457031 C297.633581,190.847653 298.266387,190.542969 299.047641,190.542969 C300.387491,190.542969 301.063266,191.298821 301.074984,192.810547 L301.074984,197 L299.991,197 L299.991,192.804688 C299.987094,192.347654 299.882603,192.009767 299.677523,191.791016 C299.472444,191.572265 299.153112,191.462891 298.719516,191.462891 C298.367951,191.462891 298.059361,191.55664 297.793734,191.744141 C297.528108,191.931642 297.321079,192.177733 297.172641,192.482422 L297.172641,197 L296.088656,197 L296.088656,190.660156 L297.114047,190.660156 Z M303.887484,197 L302.8035,197 L302.8035,190.660156 L303.887484,190.660156 L303.887484,197 Z M302.715609,188.978516 C302.715609,188.802733 302.76932,188.654297 302.876742,188.533203 C302.984165,188.412109 303.143343,188.351562 303.354281,188.351562 C303.56522,188.351562 303.725374,188.412109 303.83475,188.533203 C303.944126,188.654297 303.998812,188.802733 303.998812,188.978516 C303.998812,189.154298 303.944126,189.300781 303.83475,189.417969 C303.725374,189.535157 303.56522,189.59375 303.354281,189.59375 C303.143343,189.59375 302.984165,189.535157 302.876742,189.417969 C302.76932,189.300781 302.715609,189.154298 302.715609,188.978516 Z M305.33025,193.771484 C305.33025,193.150388 305.452319,192.591799 305.696461,192.095703 C305.940603,191.599607 306.280443,191.216798 306.715992,190.947266 C307.151541,190.677733 307.648607,190.542969 308.207203,190.542969 C309.070489,190.542969 309.768724,190.841794 310.30193,191.439453 C310.835135,192.037112 311.101734,192.832026 311.101734,193.824219 L311.101734,193.900391 C311.101734,194.517581 310.983571,195.071287 310.747242,195.561523 C310.510913,196.05176 310.173026,196.433592 309.73357,196.707031 C309.294115,196.98047 308.789237,197.117188 308.218922,197.117188 C307.359543,197.117188 306.66326,196.818362 306.130055,196.220703 C305.596849,195.623044 305.33025,194.832036 305.33025,193.847656 L305.33025,193.771484 Z M306.420094,193.900391 C306.420094,194.603519 306.583178,195.167967 306.909352,195.59375 C307.235525,196.019533 307.672044,196.232422 308.218922,196.232422 C308.769706,196.232422 309.207202,196.016604 309.531422,195.584961 C309.855642,195.153318 310.01775,194.548832 310.01775,193.771484 C310.01775,193.076168 309.852713,192.512697 309.522633,192.081055 C309.192553,191.649412 308.754081,191.433594 308.207203,191.433594 C307.672044,191.433594 307.240408,191.646482 306.912281,192.072266 C306.584155,192.498049 306.420094,193.107418 306.420094,193.900391 Z M313.4865,190.660156 L313.521656,191.457031 C314.006034,190.847653 314.63884,190.542969 315.420094,190.542969 C316.759944,190.542969 317.435719,191.298821 317.447437,192.810547 L317.447437,197 L316.363453,197 L316.363453,192.804688 C316.359547,192.347654 316.255056,192.009767 316.049977,191.791016 C315.844897,191.572265 315.525565,191.462891 315.091969,191.462891 C314.740404,191.462891 314.431814,191.55664 314.166187,191.744141 C313.900561,191.931642 313.693532,192.177733 313.545094,192.482422 L313.545094,197 L312.461109,197 L312.461109,190.660156 L313.4865,190.660156 Z" id="Get-Second-Opinion" fill="#616261"></path>
                <path d="M217.898438,126.939453 C217.740234,128.292976 217.240727,129.337399 216.399902,130.072754 C215.559078,130.808109 214.441413,131.175781 213.046875,131.175781 C211.535149,131.175781 210.323735,130.633794 209.412598,129.549805 C208.50146,128.465815 208.045898,127.015634 208.045898,125.199219 L208.045898,123.96875 C208.045898,122.779291 208.258299,121.733403 208.683105,120.831055 C209.107912,119.928706 209.709957,119.235842 210.489258,118.752441 C211.268559,118.269041 212.170893,118.027344 213.196289,118.027344 C214.555671,118.027344 215.645504,118.406734 216.46582,119.165527 C217.286137,119.92432 217.763671,120.974603 217.898438,122.316406 L216.202148,122.316406 C216.055663,121.29687 215.737795,120.558596 215.248535,120.101562 C214.759275,119.644529 214.0752,119.416016 213.196289,119.416016 C212.118159,119.416016 211.272952,119.814449 210.660645,120.611328 C210.048337,121.408207 209.742188,122.541985 209.742188,124.012695 L209.742188,125.251953 C209.742188,126.640632 210.032224,127.745113 210.612305,128.56543 C211.192386,129.385746 212.003901,129.795898 213.046875,129.795898 C213.98438,129.795898 214.703611,129.583498 215.20459,129.158691 C215.705569,128.733885 216.038085,127.994146 216.202148,126.939453 L217.898438,126.939453 Z M219.515625,126.157227 C219.515625,125.225581 219.698729,124.387699 220.064941,123.643555 C220.431154,122.89941 220.940915,122.325197 221.594238,121.920898 C222.247562,121.5166 222.99316,121.314453 223.831055,121.314453 C225.125983,121.314453 226.173336,121.762691 226.973145,122.65918 C227.772953,123.555669 228.172852,124.748039 228.172852,126.236328 L228.172852,126.350586 C228.172852,127.276372 227.995607,128.10693 227.641113,128.842285 C227.286619,129.57764 226.779788,130.150389 226.120605,130.560547 C225.461422,130.970705 224.704106,131.175781 223.848633,131.175781 C222.559564,131.175781 221.515141,130.727544 220.715332,129.831055 C219.915523,128.934566 219.515625,127.748054 219.515625,126.271484 L219.515625,126.157227 Z M221.150391,126.350586 C221.150391,127.405279 221.395017,128.25195 221.884277,128.890625 C222.373538,129.5293 223.028316,129.848633 223.848633,129.848633 C224.674809,129.848633 225.331052,129.524906 225.817383,128.877441 C226.303713,128.229977 226.546875,127.323248 226.546875,126.157227 C226.546875,125.114253 226.299319,124.269046 225.804199,123.621582 C225.30908,122.974118 224.651371,122.650391 223.831055,122.650391 C223.028316,122.650391 222.380862,122.969723 221.888672,123.608398 C221.396482,124.247074 221.150391,125.161127 221.150391,126.350586 Z M231.75,121.490234 L231.802734,122.685547 C232.529301,121.77148 233.47851,121.314453 234.650391,121.314453 C236.660166,121.314453 237.673828,122.448231 237.691406,124.71582 L237.691406,131 L236.06543,131 L236.06543,124.707031 C236.05957,124.021481 235.902834,123.51465 235.595215,123.186523 C235.287596,122.858397 234.808597,122.694336 234.158203,122.694336 C233.630857,122.694336 233.167971,122.83496 232.769531,123.116211 C232.371092,123.397462 232.060548,123.766599 231.837891,124.223633 L231.837891,131 L230.211914,131 L230.211914,121.490234 L231.75,121.490234 Z M245.680664,128.477539 C245.680664,128.038084 245.515138,127.696779 245.184082,127.453613 C244.853026,127.210448 244.275883,127.000977 243.452637,126.825195 C242.62939,126.649413 241.976077,126.438478 241.492676,126.192383 C241.009275,125.946288 240.651857,125.653322 240.42041,125.313477 C240.188964,124.973631 240.073242,124.569338 240.073242,124.100586 C240.073242,123.321285 240.402829,122.662112 241.062012,122.123047 C241.721195,121.583982 242.563471,121.314453 243.588867,121.314453 C244.666998,121.314453 245.541501,121.592771 246.212402,122.149414 C246.883304,122.706057 247.21875,123.417964 247.21875,124.285156 L245.583984,124.285156 C245.583984,123.839842 245.395021,123.456056 245.01709,123.133789 C244.639158,122.811522 244.163089,122.650391 243.588867,122.650391 C242.997067,122.650391 242.534181,122.779296 242.200195,123.037109 C241.866209,123.294923 241.699219,123.631834 241.699219,124.047852 C241.699219,124.440432 241.854491,124.736327 242.165039,124.935547 C242.475587,125.134767 243.036617,125.325194 243.848145,125.506836 C244.659672,125.688477 245.31738,125.905272 245.821289,126.157227 C246.325198,126.409181 246.698729,126.712401 246.941895,127.066895 C247.18506,127.421388 247.306641,127.853513 247.306641,128.363281 C247.306641,129.212895 246.9668,129.89404 246.287109,130.406738 C245.607418,130.919436 244.725591,131.175781 243.641602,131.175781 C242.879879,131.175781 242.206058,131.041017 241.620117,130.771484 C241.034177,130.501952 240.575685,130.125491 240.244629,129.64209 C239.913573,129.158689 239.748047,128.635745 239.748047,128.073242 L241.374023,128.073242 C241.40332,128.618167 241.62158,129.050291 242.028809,129.369629 C242.436037,129.688966 242.973629,129.848633 243.641602,129.848633 C244.256839,129.848633 244.750486,129.724122 245.122559,129.475098 C245.494631,129.226073 245.680664,128.893557 245.680664,128.477539 Z M255.295898,130.05957 C254.663083,130.803715 253.734381,131.175781 252.509766,131.175781 C251.496089,131.175781 250.724124,130.881351 250.193848,130.29248 C249.663572,129.70361 249.395508,128.832037 249.389648,127.677734 L249.389648,121.490234 L251.015625,121.490234 L251.015625,127.633789 C251.015625,129.075203 251.601557,129.795898 252.773438,129.795898 C254.015631,129.795898 254.841795,129.333012 255.251953,128.407227 L255.251953,121.490234 L256.87793,121.490234 L256.87793,131 L255.331055,131 L255.295898,130.05957 Z M261.114258,131 L259.488281,131 L259.488281,117.5 L261.114258,117.5 L261.114258,131 Z M265.921875,119.1875 L265.921875,121.490234 L267.697266,121.490234 L267.697266,122.74707 L265.921875,122.74707 L265.921875,128.644531 C265.921875,129.025393 266.000976,129.311034 266.15918,129.501465 C266.317384,129.691895 266.586912,129.787109 266.967773,129.787109 C267.155274,129.787109 267.413084,129.751953 267.741211,129.681641 L267.741211,131 C267.313474,131.117188 266.897463,131.175781 266.493164,131.175781 C265.766598,131.175781 265.218752,130.956057 264.849609,130.516602 C264.480467,130.077146 264.295898,129.453129 264.295898,128.644531 L264.295898,122.74707 L262.564453,122.74707 L262.564453,121.490234 L264.295898,121.490234 L264.295898,119.1875 L265.921875,119.1875 Z M273.621094,126.157227 C273.621094,125.225581 273.804197,124.387699 274.17041,123.643555 C274.536623,122.89941 275.046383,122.325197 275.699707,121.920898 C276.353031,121.5166 277.098629,121.314453 277.936523,121.314453 C279.231452,121.314453 280.278805,121.762691 281.078613,122.65918 C281.878422,123.555669 282.27832,124.748039 282.27832,126.236328 L282.27832,126.350586 C282.27832,127.276372 282.101076,128.10693 281.746582,128.842285 C281.392088,129.57764 280.885257,130.150389 280.226074,130.560547 C279.566891,130.970705 278.809575,131.175781 277.954102,131.175781 C276.665033,131.175781 275.620609,130.727544 274.820801,129.831055 C274.020992,128.934566 273.621094,127.748054 273.621094,126.271484 L273.621094,126.157227 Z M275.255859,126.350586 C275.255859,127.405279 275.500486,128.25195 275.989746,128.890625 C276.479006,129.5293 277.133785,129.848633 277.954102,129.848633 C278.780278,129.848633 279.436521,129.524906 279.922852,128.877441 C280.409182,128.229977 280.652344,127.323248 280.652344,126.157227 C280.652344,125.114253 280.404788,124.269046 279.909668,123.621582 C279.414548,122.974118 278.75684,122.650391 277.936523,122.650391 C277.133785,122.650391 276.486331,122.969723 275.994141,123.608398 C275.501951,124.247074 275.255859,125.161127 275.255859,126.350586 Z M285.855469,121.490234 L285.908203,122.685547 C286.634769,121.77148 287.583979,121.314453 288.755859,121.314453 C290.765635,121.314453 291.779297,122.448231 291.796875,124.71582 L291.796875,131 L290.170898,131 L290.170898,124.707031 C290.165039,124.021481 290.008302,123.51465 289.700684,123.186523 C289.393065,122.858397 288.914066,122.694336 288.263672,122.694336 C287.736325,122.694336 287.273439,122.83496 286.875,123.116211 C286.476561,123.397462 286.166017,123.766599 285.943359,124.223633 L285.943359,131 L284.317383,131 L284.317383,121.490234 L285.855469,121.490234 Z M308.373047,126.939453 C308.214843,128.292976 307.715336,129.337399 306.874512,130.072754 C306.033687,130.808109 304.916023,131.175781 303.521484,131.175781 C302.009758,131.175781 300.798344,130.633794 299.887207,129.549805 C298.97607,128.465815 298.520508,127.015634 298.520508,125.199219 L298.520508,123.96875 C298.520508,122.779291 298.732908,121.733403 299.157715,120.831055 C299.582522,119.928706 300.184566,119.235842 300.963867,118.752441 C301.743168,118.269041 302.645503,118.027344 303.670898,118.027344 C305.03028,118.027344 306.120113,118.406734 306.94043,119.165527 C307.760746,119.92432 308.238281,120.974603 308.373047,122.316406 L306.676758,122.316406 C306.530273,121.29687 306.212405,120.558596 305.723145,120.101562 C305.233884,119.644529 304.549809,119.416016 303.670898,119.416016 C302.592768,119.416016 301.747562,119.814449 301.135254,120.611328 C300.522946,121.408207 300.216797,122.541985 300.216797,124.012695 L300.216797,125.251953 C300.216797,126.640632 300.506833,127.745113 301.086914,128.56543 C301.666995,129.385746 302.47851,129.795898 303.521484,129.795898 C304.458989,129.795898 305.17822,129.583498 305.679199,129.158691 C306.180178,128.733885 306.512694,127.994146 306.676758,126.939453 L308.373047,126.939453 Z M312.046875,122.641602 C312.767582,121.756832 313.705072,121.314453 314.859375,121.314453 C316.869151,121.314453 317.882812,122.448231 317.900391,124.71582 L317.900391,131 L316.274414,131 L316.274414,124.707031 C316.268555,124.021481 316.111818,123.51465 315.804199,123.186523 C315.49658,122.858397 315.017581,122.694336 314.367188,122.694336 C313.839841,122.694336 313.376955,122.83496 312.978516,123.116211 C312.580076,123.397462 312.269532,123.766599 312.046875,124.223633 L312.046875,131 L310.420898,131 L310.420898,117.5 L312.046875,117.5 L312.046875,122.641602 Z M326.206055,131 C326.112304,130.812499 326.036133,130.478518 325.977539,129.998047 C325.221676,130.783207 324.319341,131.175781 323.270508,131.175781 C322.333003,131.175781 321.563968,130.910647 320.963379,130.380371 C320.36279,129.850095 320.0625,129.177738 320.0625,128.363281 C320.0625,127.373042 320.438961,126.604007 321.191895,126.056152 C321.944828,125.508298 323.003899,125.234375 324.369141,125.234375 L325.951172,125.234375 L325.951172,124.487305 C325.951172,123.918942 325.781252,123.46631 325.441406,123.129395 C325.101561,122.792479 324.600589,122.624023 323.938477,122.624023 C323.358396,122.624023 322.872072,122.770506 322.479492,123.063477 C322.086912,123.356447 321.890625,123.710935 321.890625,124.126953 L320.255859,124.126953 C320.255859,123.652341 320.424315,123.19385 320.76123,122.751465 C321.098146,122.30908 321.555173,121.958986 322.132324,121.701172 C322.709476,121.443358 323.343747,121.314453 324.035156,121.314453 C325.130865,121.314453 325.989255,121.588376 326.610352,122.13623 C327.231448,122.684085 327.553711,123.438472 327.577148,124.399414 L327.577148,128.776367 C327.577148,129.649418 327.688475,130.343747 327.911133,130.859375 L327.911133,131 L326.206055,131 Z M323.507812,129.760742 C324.017581,129.760742 324.500974,129.628908 324.958008,129.365234 C325.415041,129.101561 325.746093,128.758791 325.951172,128.336914 L325.951172,126.385742 L324.676758,126.385742 C322.68456,126.385742 321.688477,126.968744 321.688477,128.134766 C321.688477,128.644534 321.858397,129.042967 322.198242,129.330078 C322.538088,129.617189 322.974607,129.760742 323.507812,129.760742 Z M332.332031,119.1875 L332.332031,121.490234 L334.107422,121.490234 L334.107422,122.74707 L332.332031,122.74707 L332.332031,128.644531 C332.332031,129.025393 332.411132,129.311034 332.569336,129.501465 C332.72754,129.691895 332.997068,129.787109 333.37793,129.787109 C333.565431,129.787109 333.823241,129.751953 334.151367,129.681641 L334.151367,131 C333.723631,131.117188 333.307619,131.175781 332.90332,131.175781 C332.176754,131.175781 331.628908,130.956057 331.259766,130.516602 C330.890623,130.077146 330.706055,129.453129 330.706055,128.644531 L330.706055,122.74707 L328.974609,122.74707 L328.974609,121.490234 L330.706055,121.490234 L330.706055,119.1875 L332.332031,119.1875 Z" id="Consult-on-Chat" fill="#616261"></path>
                <g id="Group-36" transform="translate(11.000000, 86.000000)">
                    <path d="M115.320932,153.64086 C115.320932,153.64086 125.808145,177.685242 126.30542,191.024679 C126.801263,204.364117 125.313735,218.691132 119.855169,229.560197 C114.398035,240.429262 104.476885,260.192237 104.476885,260.192237 L101.004554,269.08472 C101.004554,269.08472 111.991909,271.639292 115.886995,272.542669 C118.214302,273.083554 120.694948,273.779996 122.45046,274.296619 C124.076995,274.77471 124.812161,276.825504 123.657106,278.064257 C123.423515,278.312579 123.151231,278.472418 122.831657,278.472418 C121.52183,278.472418 96.3700031,277.323574 90.3726016,277.048137 C89.7047906,277.018167 89.2304441,276.401644 89.3751843,275.75087 C90.8498142,269.060458 97.6597669,236.981303 96.043263,221.655292 C94.4023969,206.116639 93.3247276,201.99079 89.8523969,191.615514 C86.3800661,181.240237 85.6234047,179.166609 85.6234047,179.166609 C85.6234047,179.166609 82.1009165,190.168398 78.6285858,204.001624 C75.1562551,217.83485 70.3526016,225.812539 65.8885858,234.211232 C61.423137,242.609926 54.2749795,250.556217 49.8095307,257.472117 C45.345515,264.389443 43.951137,269.08472 43.951137,269.08472 C43.951137,269.08472 51.9720346,279.445725 53.4609953,281.422308 C54.9485228,283.397463 54.4526803,284.880257 51.4761921,283.397463 C48.8937984,282.113041 33.5556409,274.162468 30.3369638,272.856639 C29.8984441,272.678247 29.673452,272.203011 29.8196252,271.752036 C31.1968063,267.477765 37.7860661,247.002649 40.4773732,237.960318 C44.6519087,223.940137 48.0841134,196.884498 49.8783181,184.085946 C51.311389,173.859091 53.4609953,151.738488 53.4609953,151.738488 L115.320932,153.64086 Z" id="Fill-15" fill="#063447"></path>
                    <path d="M107.678365,74.9107799 C107.678365,74.9107799 122.725609,90.3709407 130.607499,91.5611719 C139.594287,92.9169508 144.460995,92.036408 150.670491,86.8031015 C156.879987,81.5712221 160.16172,75.268991 162.374381,70.3910412 C164.301861,66.139604 167.390129,59.9258553 167.390129,59.9258553 C167.390129,59.9258553 165.0012,52.3149407 168.344554,49.9359055 C171.689342,47.5568704 180.388082,46.4437045 181.242192,47.0816342 C182.19805,47.795202 180.76498,51.8382774 178.37605,52.7901769 C175.988554,53.7420764 170.852428,53.7420764 170.733483,55.6444482 C170.640334,57.145795 169.777625,61.352991 169.300413,64.2072623 C168.98657,66.0839457 164.761877,92.036408 156.402775,102.739926 C149.971153,110.975926 143.027924,114.395343 133.950854,115.822478 C124.875216,117.249614 117.709861,114.395343 117.709861,114.395343 L107.678365,74.9107799 Z" id="Fill-17" fill="#52A5D3"></path>
                    <path d="M107.678365,74.9107799 C107.678365,74.9107799 115.083043,81.8081266 116.993326,83.2352623 C118.903609,84.662398 122.248397,87.755001 124.398003,88.943805 C126.547609,90.1340362 129.055483,91.2043879 129.055483,91.2043879 L121.769751,115.702599 L117.709861,114.395343 L108.394901,87.9933327 L107.678365,74.9107799 Z" id="Fill-19" fill="#F0BA34"></path>
                    <path d="M75.194948,67.0615337 C75.194948,67.0615337 68.0295937,67.7751015 60.8642394,70.6293729 C53.698885,73.4836442 48.9224598,81.8081266 47.489389,88.2302372 C46.5521606,92.436006 47.0121764,104.405393 48.9224598,115.345815 C50.8327433,126.287664 53.2216724,151.50087 53.2216724,151.50087 C53.2216724,151.50087 76.1508063,157.684649 90.0043024,157.684649 C103.856365,157.684649 115.320932,153.878478 115.320932,153.878478 C115.320932,153.878478 116.754003,140.559021 117.232649,128.666699 C117.709861,116.772951 118.187074,107.259664 116.276791,95.3659156 C114.366507,83.473594 110.544507,78.7169508 107.678365,74.9107799 C104.812224,71.104609 100.990224,67.7751015 95.7365858,67.7751015 C90.481515,67.7751015 75.194948,67.0615337 75.194948,67.0615337" id="Fill-21" fill="#FFCE44"></path>
                    <path d="M76.9862866,62.7801266 C76.9862866,62.7801266 76.9461606,64.9879055 76.6280189,65.634398 C76.4058929,66.0868 75.6535307,66.6690714 75.194948,66.8831417 C74.6933732,67.117192 73.2029795,67.3455337 72.1496724,67.5082271 C70.5990898,67.7451317 69.4626646,68.043403 69.4626646,68.043403 C69.4626646,68.043403 76.6280189,72.4132925 81.6437669,72.0565085 C86.659515,71.6997246 90.5116094,70.1826794 90.5116094,70.1826794 C90.5116094,70.1826794 88.4766488,67.5453327 88.4508535,66.7047497 C88.419326,65.5873025 90.6004598,62.7801266 90.6004598,62.7801266 L76.9862866,62.7801266 Z" id="Fill-23" fill="#1080C4"></path>
                    <path d="M58.9539559,71.5805588 C58.9539559,71.5805588 42.2343181,78.7162372 31.2483969,93.4628302 C20.2610425,108.21085 14.0515465,127.714086 11.6626173,135.326428 C9.27368819,142.937343 8.46830236,145.37489 6.40754646,157.14876 C6.24274331,158.100659 5.24389291,160.271333 3.00400315,162.947212 C2.37775118,163.697885 3.29491654,164.184539 3.06419213,164.939493 C2.62423937,166.378046 0.964743307,169.610509 1.63112126,170.052921 C1.98938898,170.291252 3.23472756,168.988277 4.25794016,167.912217 C5.10058583,167.025966 5.07335748,166.599252 5.33274331,166.663473 C5.57206614,166.723413 5.29978268,167.161544 4.90712126,168.123433 C4.4528378,169.24088 3.3063811,170.21276 3.89967244,170.409705 C4.25794016,170.528157 8.55715276,168.387453 9.87127874,165.533182 C11.2656567,162.506227 11.2326961,161.794086 11.6626173,160.538207 C15.6852472,148.795735 30.2925386,122.957443 36.024822,117.248901 C41.7571055,111.540358 49.3996724,106.783715 49.3996724,106.783715 L58.9539559,71.5805588 Z" id="Fill-25" fill="#52A5D3"></path>
                    <g id="Group-29" transform="translate(0.000000, 160.853482)">
                        <mask id="mask-4" fill="white">
                            <use xlink:href="#path-3"></use>
                        </mask>
                        <g id="Clip-28"></g>
                        <path d="M4.97447559,2.53971027 C4.97447559,2.53971027 3.31211339,4.74178062 2.46660157,5.39398162 C1.62252283,6.04475549 0.316995276,7.29635348 0.034680315,6.84680574 C-0.148752756,6.55424293 0.42304252,4.57195147 1.03353071,3.96684594 C1.6440189,3.36174042 4.85553071,0.399006748 4.85553071,0.399006748 L4.97447559,2.53971027 Z" id="Fill-27" fill="#52A5D3" mask="url(#mask-4)"></path>
                    </g>
                    <path d="M27.4263969,99.1720864 C27.4263969,99.1720864 30.0532157,104.167061 33.1586803,107.734901 C36.2641449,111.30274 39.7264441,113.918679 39.7264441,113.918679 C39.7264441,113.918679 43.1901764,111.064408 45.1004598,109.875604 C47.0121764,108.6868 49.7579402,107.734901 49.7579402,107.734901 L60.1477039,70.8677045 C60.1477039,70.8677045 51.311389,75.1491116 45.3397827,79.6674231 C39.3681764,84.1871618 35.7854992,87.9933327 33.3980031,90.847604 C31.009074,93.7018754 27.4263969,99.1720864 27.4263969,99.1720864" id="Fill-30" fill="#FFCE44"></path>
                    <path d="M57.708474,43.7381407 C57.708474,43.7381407 52.6296709,31.4861809 52.0148835,29.015809 C51.0403953,25.0897588 50.6763953,20.4244523 51.0934189,17.2776181 C51.5090094,14.1336382 52.9506787,10.0106432 55.6720803,7.61020101 C57.8460488,5.69355779 61.5949622,3.62706533 67.7757969,2.34407035 C73.9566315,1.05964824 79.1701433,0.283286432 81.6780173,0.527326633 C84.1858913,0.771366834 87.9935606,1.35649246 90.164663,3.65846231 C92.3357654,5.96043216 93.3245843,7.74292462 94.2016236,10.4673266 C95.078663,13.1903015 98.3675606,22.2954271 98.3675606,22.2954271 L90.2477811,45.8503015 L72.4404425,53.2200302 L62.0635764,46.1985226 L57.708474,43.7381407 Z" id="Fill-32" fill="#063447"></path>
                    <path d="M58.3395984,41.6189869 C56.9853465,41.7474291 54.2811417,42.7678312 54.9561181,45.9917307 C55.6310945,49.2170573 56.9939449,49.8521327 58.5875197,50.1318513 C60.1810945,50.412997 61.5926693,49.8136 61.5926693,49.8136 C61.5926693,49.8136 68.0085276,59.1870271 73.3452835,62.6663839 C78.6791732,66.1471678 87.8422283,67.0676704 94.1334094,62.9375397 C101.288732,58.239409 104.445787,51.3135196 104.504543,44.2663236 C104.564732,37.2191276 101.741583,27.4061427 99.0416772,21.8488764 C96.9278976,17.4946854 94.0302283,11.1139618 91.252937,10.3147658 C88.4727795,9.51414271 88.0342598,13.2774995 86.8061181,14.7545849 C85.5808425,16.2330975 82.6803071,18.5179417 78.3137402,18.2011176 C73.9486063,17.8842935 69.6121339,17.7144643 66.6686063,18.3252784 C63.710748,18.9403739 61.9967953,20.2133789 61.1699134,23.5971176 C60.5622913,26.0831879 61.3304173,28.7633487 62.1100079,30.2846754 C62.8881654,31.8045749 65.0721654,35.6335799 66.6370787,39.4368965 C68.2019921,43.2416402 69.4401654,46.9607558 69.4401654,46.9607558 C69.4401654,46.9607558 67.4653937,47.0649367 66.1527008,45.1953889 C64.8400079,43.3272683 62.6631732,40.2617809 61.6514252,39.0958111 L60.6382441,37.9298412 L60.8489055,41.8630271 C60.8489055,41.8630271 58.9672835,41.5590472 58.3395984,41.6189869" id="Fill-34" fill="#52A5D3"></path>
                </g>
                <g id="Group-39" transform="translate(66.000000, 96.000000)">
                    <mask id="mask-6" fill="white">
                        <use xlink:href="#path-5"></use>
                    </mask>
                    <g id="Clip-38"></g>
                    <path d="M29.9732829,7.12385164 C29.9732829,7.12385164 38.5879114,20.1753135 39.4549114,21.334208 C40.3233686,22.4916771 42.1316829,25.1572771 42.5047114,26.9020335 C42.8748257,28.6482153 42.6416829,29.3024989 41.9349686,30.0537135 C41.2267971,30.804928 40.4180829,31.0914444 40.4180829,31.0914444 C40.4180829,31.0914444 42.6591686,36.9457862 43.0161686,39.7867171 C43.3731686,42.627648 43.6660543,46.3295535 43.5829971,47.6823098 C43.4984829,49.0350662 43.48974,50.7370589 43.48974,50.7370589 L56.5311686,46.1342662 L55.1512543,21.0448407 L48.6684257,6.344128 L40.6206257,1.18825891 L35.3719971,-2.47515927 L28.49574,4.26866618 L29.9732829,7.12385164 Z" id="Fill-37" fill="#1080C4" mask="url(#mask-6)"></path>
                </g>
                <path d="M82.2643029,122.484563 C83.5104613,120.253794 86.3132144,118.913985 89.0468183,119.004294 C91.7818933,119.094603 94.3654285,120.503155 96,122.512869 C94.0034982,123.889071 91.8892954,125.223488 89.4646565,125.769386 C87.0385463,126.315284 84.2166668,125.924394 82.5173598,124.248959 C82.2790155,124.014425 82.056855,123.74215 82.0097746,123.425394 C81.961223,123.100551 82.1009928,122.777056 82.2643029,122.484563" id="Fill-40" fill="#C2E8FA"></path>
            </g>
        </g>
    </g>
</svg>