<?xml version="1.0" encoding="UTF-8"?>
<svg width="302px" height="302px" viewBox="0 0 302 302" version="1.1" xmlns="http://www.w3.org/2000/svg" xmlns:xlink="http://www.w3.org/1999/xlink">
    <!-- Generator: Sketch 50.2 (55047) - http://www.bohemiancoding.com/sketch -->
    <title>Group 19</title>
    <desc>Created with Sketch.</desc>
    <defs>
        <polygon id="path-1" points="0.1638 0.43 156.5658 0.43 156.5658 126.2407 0.1638 126.2407"></polygon>
        <path d="M11.76,2.541 C10.567,3.781 10.106,5.597 10.044,6.743 C9.98,7.889 9.952,10.849 9.571,13.587 C9.191,16.324 8.652,18.903 8.652,18.903 C8.652,18.903 7.473,18.298 7.345,16.771 C7.217,15.243 6.992,12.729 6.8,11.71 L6.609,10.692 L5.4,13.048 C5.4,13.048 4.414,12.238 4.031,12.062 C3.203,11.681 1.294,11.364 0.595,13.465 C-0.104,15.566 0.47,16.393 1.298,17.093 C2.125,17.792 3.144,17.919 3.144,17.919 C3.144,17.919 3.69,25.526 5.603,29.344 C7.515,33.162 12.506,36.781 17.543,36.498 C23.271,36.177 27.439,33.214 29.856,29.137 C32.271,25.062 33.954,18.409 34.27,14.271 C34.518,11.028 34.998,6.345 33.659,4.945 C32.321,3.545 30.796,5.584 29.586,6.03 C28.377,6.476 25.926,6.829 23.506,5.174 C21.086,3.521 18.634,1.963 16.724,1.328 C16.063,1.108 15.461,0.983 14.889,0.983 C13.801,0.983 12.823,1.435 11.76,2.541 Z" id="path-3"></path>
        <path d="M8.731,1.187 C8.731,1.187 10.567,18.786 9.177,20.43 C7.788,22.075 6.058,20.842 6.058,20.842 C6.058,20.842 3.884,31.547 1.159,33.289 C-1.565,35.031 11.837,31.61 11.837,31.61 L17.776,22.215 L19.341,15.748 L20.019,9.249 L19.565,0.418" id="path-5"></path>
        <polygon id="path-7" points="0 0 204 0 204 58 0 58"></polygon>
    </defs>
    <g id="Page-1" stroke="none" stroke-width="1" fill="none" fill-rule="evenodd">
        <g id="Artboard-Copy-4" transform="translate(-864.000000, -2816.000000)">
            <g id="Group-19" transform="translate(864.000000, 2816.000000)">
                <circle id="Oval-5-Copy-3" fill="#D8ECF0" cx="151" cy="151" r="151"></circle>
                <g id="Group-20" transform="translate(74.000000, 65.000000)">
                    <g id="Group-3">
                        <mask id="mask-2" fill="white">
                            <use xlink:href="#path-1"></use>
                        </mask>
                        <g id="Clip-2"></g>
                        <path d="M152.2668,126.2407 L4.4628,126.2407 C2.0888,126.2407 0.1638,124.3157 0.1638,121.9417 L0.1638,4.7287 C0.1638,2.3547 2.0888,0.4297 4.4628,0.4297 L152.2668,0.4297 C154.6408,0.4297 156.5658,2.3547 156.5658,4.7287 L156.5658,121.9417 C156.5658,124.3157 154.6408,126.2407 152.2668,126.2407" id="Fill-1" fill="#F4F5F6" mask="url(#mask-2)"></path>
                    </g>
                    <path d="M111.2345,77.3149 L45.8595,77.7069 C45.3015,77.7099 44.8465,77.2599 44.8425,76.7019 L44.4925,17.9519 C44.4885,17.3939 44.9385,16.9389 45.4965,16.9349 L110.8705,16.5449 C111.4285,16.5409 111.8835,16.9909 111.8865,17.5479 L112.2385,76.2989 C112.2415,76.8569 111.7925,77.3119 111.2345,77.3149" id="Fill-4" fill="#F4F5F6"></path>
                    <path d="M55.2248,69.5366 C57.0278,64.5226 59.3628,60.4556 62.3868,58.5186 C77.3348,48.9476 102.0988,59.0926 110.7758,68.0066 C111.5988,68.8516 112.3748,69.7236 113.1078,70.6166" id="Fill-6" fill="#E3E3E4"></path>
                    <path d="M72.9933,54.8676 C64.2603,54.8676 54.0303,59.7776 45.8943,67.2266 L43.6233,69.8546 L63.6083,69.7366" id="Fill-8" fill="#E3E3E4"></path>
                    <polyline id="Fill-10" fill="#39C0CD" points="69.3693 58.1362 75.4783 60.3022 80.7753 60.7532 84.4423 59.2932 87.1673 56.7822 91.4733 57.9302"></polyline>
                    <path d="M74.1515,53.3471 C74.1515,53.3471 73.8265,54.4891 73.1075,56.6101 L70.9625,57.8201 L80.7885,61.2651 L85.7445,60.1131 L87.3105,56.5541 C87.3105,56.5541 85.4585,53.4761 86.3545,51.9811 C87.2505,50.4851 74.1515,53.3471 74.1515,53.3471" id="Fill-12" fill="#1080C4"></path>
                    <path d="M82.673,60.4565 L85.091,67.2075 C85.237,67.6145 85.798,67.6535 85.998,67.2695 L90.643,58.3975 C90.788,58.1215 90.647,57.7815 90.347,57.6925 C89.388,57.4075 87.528,56.8775 87.157,56.9375 C86.925,56.9765 86.489,57.4245 85.977,57.7975 C85.175,58.3815 84.367,59.1815 82.934,59.8395 C82.7,59.9455 82.587,60.2145 82.673,60.4565" id="Fill-14" fill="#04AEAE"></path>
                    <path d="M68.9572,58.103 C68.9572,58.103 74.4472,65.184 76.1292,68.099 C76.3112,68.416 76.7862,68.343 76.8712,67.988 L78.6452,60.416 C78.6452,60.416 77.1382,59.966 76.7822,59.809 C75.5852,59.28 73.6772,58.58 73.1072,56.61 C73.1072,56.61 71.2372,57.158 68.9572,58.103" id="Fill-16" fill="#04AEAE"></path>
                    <path d="M84.2716,70.061 L81.6856,63.366 C81.6786,63.332 81.6796,63.295 81.6876,63.26 C81.6876,63.26 82.1216,62.298 82.2846,61.915 C82.4926,61.426 83.1826,59.653 82.9976,59.72 C82.4286,59.927 81.7996,60.05 80.7516,60.233 C80.0036,60.364 78.9316,60.227 78.4176,60.279 C78.2416,60.297 78.2686,60.536 78.3606,60.687 L80.0656,63.488 C80.0996,63.544 80.1096,63.612 80.0916,63.675 C80.0916,63.675 79.0796,66.998 78.1456,69.936" id="Fill-18" fill="#063447"></path>
                </g>
                <g id="Group-23" transform="translate(137.000000, 87.000000)">
                    <mask id="mask-4" fill="white">
                        <use xlink:href="#path-3"></use>
                    </mask>
                    <g id="Clip-22"></g>
                    <path d="M27.1232,6.4389 C27.1232,6.4389 27.6112,16.8849 27.7132,17.8459 C27.8142,18.8069 27.9422,20.9569 27.5632,22.0949 C27.1852,23.2339 26.8312,23.5379 26.1742,23.7399 C25.5162,23.9429 24.9602,23.8419 24.9602,23.8419 C24.9602,23.8419 24.2542,27.9909 23.4962,29.7609 C22.7392,31.5329 21.6522,33.7849 21.1472,34.5429 C20.6422,35.3019 20.0612,36.2899 20.0612,36.2899 L29.0412,37.9269 L36.7452,22.8739 L38.0282,12.1729 L35.1922,6.5089 L33.4442,2.6409 L27.2492,4.2899 L27.1232,6.4389 Z" id="Fill-21" fill="#1080C4" mask="url(#mask-4)"></path>
                </g>
                <g id="Group-30" transform="translate(137.000000, 79.000000)">
                    <path d="M6.4836,30.8559 C6.4836,30.8559 1.4976,33.5469 0.6016,21.8379 C-0.2934,10.1289 3.5376,3.4189 5.6496,2.9129 C5.6496,2.9129 5.4536,1.1089 7.2726,1.5119 C9.0906,1.9159 12.1856,1.9949 12.1856,1.9949 C12.1856,1.9949 28.3356,0.1009 31.7826,0.2939 C35.2296,0.4869 39.4576,1.6529 40.7256,4.4129 C41.5366,6.1739 40.6106,11.3809 38.5876,12.5979 C36.5646,13.8149 31.0456,16.9069 31.0456,16.9069 L15.1136,13.6179 L13.5306,27.5719 L9.9596,29.1609 L6.8506,23.6679 L6.4836,30.8559 Z" id="Fill-24" fill="#063447"></path>
                    <path d="M6.13,20.062 C5.302,19.681 3.392,19.364 2.693,21.465 C1.994,23.566 2.567,24.393 3.396,25.093 C4.224,25.792 5.242,25.919 5.242,25.919 C5.242,25.919 5.788,33.526 7.7,37.344 C9.612,41.163 14.605,44.781 19.641,44.498 C25.37,44.176 29.537,41.213 31.954,37.137 C34.37,33.062 36.053,26.409 36.368,22.271 C36.615,19.028 37.095,14.345 35.758,12.945 C34.42,11.545 32.894,13.583 31.685,14.03 C30.475,14.476 28.025,14.829 25.605,13.174 C23.185,11.521 20.733,9.963 18.822,9.328 C16.902,8.689 15.48,8.853 13.858,10.541 C12.666,11.781 12.205,13.597 12.142,14.743 C12.079,15.889 12.049,18.849 11.669,21.586 C11.289,24.324 10.749,26.903 10.749,26.903 C10.749,26.903 9.571,26.298 9.443,24.771 C9.315,23.243 9.09,20.729 8.899,19.71 L8.707,18.692 L7.499,21.048 C7.499,21.048 6.513,20.239 6.13,20.062" id="Fill-26" fill="#52A5D3"></path>
                    <path d="M14.8293,20.9702 C16.0973,19.7142 18.1323,19.3792 19.8063,19.9972 C21.4793,20.6152 22.7663,22.0932 23.3333,23.7842 C21.7913,24.3092 20.1843,24.7812 18.5603,24.6572 C16.9363,24.5332 15.2753,23.6942 14.5943,22.2142 C14.4983,22.0072 14.4223,21.7792 14.4633,21.5542 C14.5053,21.3242 14.6633,21.1342 14.8293,20.9702" id="Fill-28" fill="#C2E8FA"></path>
                </g>
                <g id="Group-33" transform="translate(158.000000, 90.000000)">
                    <mask id="mask-6" fill="white">
                        <use xlink:href="#path-5"></use>
                    </mask>
                    <g id="Clip-32"></g>
                    <path d="M-14.87,9.062 C-15.698,8.681 -17.608,8.364 -18.307,10.465 C-19.006,12.566 -18.433,13.393 -17.604,14.093 C-16.776,14.792 -15.758,14.919 -15.758,14.919 C-15.758,14.919 -15.212,22.526 -13.3,26.344 C-11.388,30.163 -6.395,33.781 -1.359,33.498 C4.37,33.176 8.537,30.213 10.954,26.137 C13.37,22.062 15.053,15.409 15.368,11.271 C15.615,8.028 16.095,3.345 14.758,1.945 C13.42,0.545 11.894,2.583 10.685,3.03 C9.475,3.476 7.025,3.829 4.605,2.174 C2.185,0.521 -0.267,-1.037 -2.178,-1.672 C-4.098,-2.311 -5.52,-2.147 -7.142,-0.459 C-8.334,0.781 -8.795,2.597 -8.858,3.743 C-8.921,4.889 -8.951,7.849 -9.331,10.586 C-9.711,13.324 -10.251,15.903 -10.251,15.903 C-10.251,15.903 -11.429,15.298 -11.557,13.771 C-11.685,12.243 -11.91,9.729 -12.101,8.71 L-12.293,7.692 L-13.501,10.048 C-13.501,10.048 -14.487,9.239 -14.87,9.062" id="Fill-31" fill="#1080C4" mask="url(#mask-6)"></path>
                </g>
                <g id="Group-45" transform="translate(51.000000, 120.000000)">
                    <path d="M92.3293,2.9936 L91.9693,3.5566 C91.9693,3.5566 85.8013,12.9906 85.4373,13.5966 C85.3163,13.7976 85.8403,14.2256 86.6083,14.7366 L94.2973,14.8696 L92.3293,2.9936 Z" id="Fill-34" fill="#F2F2F2"></path>
                    <path d="M118.8166,15.3403 C119.8536,14.7643 120.6436,14.2483 120.5146,14.0023 C120.1856,13.3783 114.5536,3.6143 114.5536,3.6143 L114.2256,3.0313 L111.4506,15.1133 L118.8166,15.3403 Z" id="Fill-36" fill="#F2F2F2"></path>
                    <path d="M87.6183,14.6958 C87.6043,14.5208 86.9923,14.9608 87.8843,10.5788 C89.1063,4.5748 92.1803,0.2378 96.7563,0.1488 C96.7563,0.1488 96.5023,1.2178 96.3203,1.4258 C96.0603,1.7228 95.5183,1.8278 95.5183,1.8278 C90.2213,2.3798 88.7343,14.5358 88.7463,14.6958 L87.6183,14.6958 Z" id="Fill-38" fill="#676868"></path>
                    <path d="M123.1427,15.3745 C120.6597,4.5295 111.2927,2.2145 111.1967,2.1865 L112.9477,1.3115 C113.3717,1.4335 122.4487,3.3035 124.7307,14.1155 C124.7957,14.4245 124.790789,15.3745 124.790789,15.3745 L123.1427,15.3745 Z" id="Fill-40" fill="#676868"></path>
                    <g id="Group-44" transform="translate(0.000000, 64.000000)">
                        <mask id="mask-8" fill="white">
                            <use xlink:href="#path-7"></use>
                        </mask>
                        <g id="Clip-43"></g>
                        <path d="M201.378401,58 L2.62159925,58 C1.18008277,58 0,56.6945531 0,55.0988954 L0,2.90010042 C0,1.30444267 1.18008277,0 2.62159925,0 L201.378401,0 C202.820825,0 204,1.30444267 204,2.90010042 L204,55.0988954 C204,56.6945531 202.820825,58 201.378401,58" id="Fill-42" fill="#1080C4" mask="url(#mask-8)"></path>
                    </g>
                </g>
                <path d="M106.9707,207.043962 L106.9707,210.484331 L112.838887,210.484331 L112.838887,213.349388 L106.9707,213.349388 L106.9707,220 L103.725938,220 L103.725938,204.07535 L113.9665,204.07535 L113.9665,207.043962 L106.9707,207.043962 Z M125.935007,213.993738 C125.935007,216.003506 125.470926,217.566423 124.54275,218.682534 C123.614575,219.798646 122.153296,220.356694 120.158869,220.356694 C116.29275,220.356694 114.359719,218.23573 114.359719,213.993738 C114.359719,211.953286 114.8238,210.375027 115.751975,209.258916 C116.680151,208.142804 118.149101,207.584756 120.158869,207.584756 C122.153296,207.584756 123.614575,208.142804 124.54275,209.258916 C125.470926,210.375027 125.935007,211.953286 125.935007,213.993738 Z M122.862838,213.993738 C122.862838,212.666677 122.655728,211.698244 122.2415,211.088409 C121.827273,210.478575 121.13307,210.173663 120.158869,210.173663 C119.192339,210.173663 118.494301,210.486246 118.064732,211.111422 C117.635163,211.736598 117.420382,212.69736 117.420382,213.993738 C117.420382,215.282444 117.633245,216.2317 118.058979,216.841534 C118.484712,217.451369 119.184668,217.756281 120.158869,217.756281 C121.117728,217.756281 121.808096,217.455204 122.229994,216.853041 C122.651892,216.250877 122.862838,215.297786 122.862838,213.993738 Z M128.661988,220 L128.661988,202.867194 L131.6306,202.867194 L131.6306,220 L128.661988,220 Z M134.978919,220 L134.978919,202.867194 L137.947532,202.867194 L137.947532,220 L134.978919,220 Z M152.261307,213.993738 C152.261307,216.003506 151.797226,217.566423 150.86905,218.682534 C149.940875,219.798646 148.479596,220.356694 146.485169,220.356694 C142.61905,220.356694 140.686019,218.23573 140.686019,213.993738 C140.686019,211.953286 141.1501,210.375027 142.078275,209.258916 C143.006451,208.142804 144.475401,207.584756 146.485169,207.584756 C148.479596,207.584756 149.940875,208.142804 150.86905,209.258916 C151.797226,210.375027 152.261307,211.953286 152.261307,213.993738 Z M149.189138,213.993738 C149.189138,212.666677 148.982028,211.698244 148.5678,211.088409 C148.153573,210.478575 147.45937,210.173663 146.485169,210.173663 C145.518639,210.173663 144.820601,210.486246 144.391032,211.111422 C143.961463,211.736598 143.746682,212.69736 143.746682,213.993738 C143.746682,215.282444 143.959545,216.2317 144.385279,216.841534 C144.811012,217.451369 145.510968,217.756281 146.485169,217.756281 C147.444028,217.756281 148.134396,217.455204 148.556294,216.853041 C148.978192,216.250877 149.189138,215.297786 149.189138,213.993738 Z M167.783238,220 L165.079269,220 L162.363794,212.313825 L159.636813,220 L156.921338,220 L153.63055,207.929944 L156.714225,207.929944 L158.578238,215.708169 L161.282207,207.929944 L163.525925,207.929944 L166.252907,215.639131 L168.047882,207.929944 L171.016494,207.929944 L167.783238,220 Z M186.342819,220 L186.342819,218.446656 C185.8212,219.00663 185.182609,219.464958 184.427029,219.821653 C183.671448,220.178349 182.944644,220.356694 182.246594,220.356694 C180.881179,220.356694 179.92617,219.978909 179.381538,219.223328 C178.836906,218.467747 178.564594,217.391924 178.564594,215.995825 L178.564594,207.929944 L181.533207,207.929944 L181.533207,214.580556 C181.533207,215.432023 181.583067,216.084037 181.682788,216.536619 C181.782509,216.9892 181.945513,217.301784 182.171804,217.474378 C182.398094,217.646973 182.729855,217.733269 183.167094,217.733269 C184.049244,217.733269 185.107809,217.154127 186.342819,215.995825 L186.342819,207.929944 L189.311432,207.929944 L189.311432,220 L186.342819,220 Z M203.924369,213.878675 C203.924369,215.175052 203.728765,216.317995 203.33755,217.307537 C202.946336,218.29708 202.386371,219.052649 201.657638,219.574269 C200.928905,220.095888 200.058274,220.356694 199.045719,220.356694 C197.710988,220.356694 196.57188,219.938638 195.628363,219.102512 L195.628363,224.544969 L192.65975,224.544969 L192.65975,207.929944 L195.398238,207.929944 L195.398238,209.115088 C195.950541,208.639493 196.531601,208.265544 197.141435,207.993228 C197.751269,207.720912 198.451226,207.584756 199.241325,207.584756 C200.767829,207.584756 201.929949,208.121709 202.727719,209.195631 C203.52549,210.269553 203.924369,211.830552 203.924369,213.878675 Z M200.863707,213.9247 C200.863707,212.751057 200.660432,211.836319 200.253875,211.180459 C199.847319,210.5246 199.241329,210.196675 198.435888,210.196675 C197.952623,210.196675 197.455942,210.309819 196.945829,210.536109 C196.435716,210.7624 195.996565,211.040465 195.628363,211.370313 L195.628363,216.651681 C195.942869,216.935504 196.33216,217.186721 196.796247,217.405341 C197.260335,217.62396 197.73784,217.733269 198.228775,217.733269 C199.041888,217.733269 199.684314,217.386167 200.156072,216.691953 C200.627831,215.997739 200.863707,215.075331 200.863707,213.9247 Z" id="Follow-up" fill="#FEFEFE"></path>
                <path d="M115.702231,149.438634 L118.617154,143.831243 L120.289399,143.831243 L116.438632,150.834729 L116.438632,155 L114.965829,155 L114.965829,150.834729 L111.115063,143.831243 L112.80265,143.831243 L115.702231,149.438634 Z M120.128728,150.773362 C120.128728,149.960248 120.288536,149.228967 120.608156,148.579499 C120.927777,147.93003 121.372682,147.428873 121.942884,147.076012 C122.513087,146.723152 123.163824,146.546724 123.895115,146.546724 C125.025293,146.546724 125.939393,146.937933 126.637444,147.720364 C127.335495,148.502794 127.684515,149.543462 127.684515,150.8424 L127.684515,150.942121 C127.684515,151.750121 127.529821,152.475009 127.220429,153.116806 C126.911036,153.758604 126.468688,154.258483 125.893372,154.616458 C125.318055,154.974432 124.65709,155.153417 123.910457,155.153417 C122.785394,155.153417 121.87385,154.762208 121.175799,153.979777 C120.477748,153.197346 120.128728,152.161792 120.128728,150.873083 L120.128728,150.773362 Z M121.555506,150.942121 C121.555506,151.862627 121.76901,152.601578 122.196022,153.158996 C122.623035,153.716414 123.194508,153.995119 123.910457,153.995119 C124.631521,153.995119 125.204272,153.712579 125.628727,153.14749 C126.053183,152.582401 126.265408,151.791033 126.265408,150.773362 C126.265408,149.863083 126.049348,149.12541 125.617221,148.560322 C125.185095,147.995233 124.611065,147.712693 123.895115,147.712693 C123.194508,147.712693 122.629427,147.991398 122.199858,148.548815 C121.770288,149.106233 121.555506,149.903994 121.555506,150.942121 Z M134.58828,154.179219 C134.035976,154.828688 133.225431,155.153417 132.156621,155.153417 C131.271911,155.153417 130.598162,154.896446 130.135352,154.382497 C129.672541,153.868547 129.438583,153.107862 129.433469,152.100419 L129.433469,146.700141 L130.852576,146.700141 L130.852576,152.062065 C130.852576,153.32009 131.363961,153.949094 132.386746,153.949094 C133.470898,153.949094 134.191951,153.5451 134.549926,152.737099 L134.549926,146.700141 L135.969033,146.700141 L135.969033,155 L134.618963,155 L134.58828,154.179219 Z M142.136396,147.973502 C141.921611,147.937704 141.688931,147.919806 141.438349,147.919806 C140.507614,147.919806 139.876054,148.316129 139.543649,149.108788 L139.543649,155 L138.124542,155 L138.124542,146.700141 L139.505294,146.700141 L139.528307,147.658997 C139.993674,146.917478 140.653361,146.546724 141.507386,146.546724 C141.783538,146.546724 141.993206,146.582521 142.136396,146.654116 L142.136396,147.973502 Z M147.552016,155 L147.552016,143.831243 L150.704735,143.831243 C151.676381,143.831243 152.535507,144.046025 153.28214,144.475594 C154.028773,144.905164 154.60536,145.516269 155.011917,146.308927 C155.418474,147.101586 155.624306,148.011851 155.62942,149.03975 L155.62942,149.753139 C155.62942,150.806607 155.426145,151.729657 155.019588,152.522316 C154.613031,153.314974 154.032609,153.923522 153.278305,154.347978 C152.524001,154.772434 151.645697,154.989772 150.643368,155 L147.552016,155 Z M149.024819,145.043237 L149.024819,153.795677 L150.57433,153.795677 C151.709622,153.795677 152.593039,153.442821 153.224609,152.737099 C153.856179,152.031378 154.171959,151.026506 154.171959,149.722455 L154.171959,149.070433 C154.171959,147.80218 153.874077,146.816485 153.278305,146.113321 C152.682533,145.410156 151.837469,145.053465 150.743089,145.043237 L149.024819,145.043237 Z M157.25564,150.773362 C157.25564,149.960248 157.415448,149.228967 157.735069,148.579499 C158.054689,147.93003 158.499594,147.428873 159.069796,147.076012 C159.639999,146.723152 160.290736,146.546724 161.022028,146.546724 C162.152205,146.546724 163.066306,146.937933 163.764356,147.720364 C164.462407,148.502794 164.811427,149.543462 164.811427,150.8424 L164.811427,150.942121 C164.811427,151.750121 164.656733,152.475009 164.347341,153.116806 C164.037948,153.758604 163.595601,154.258483 163.020284,154.616458 C162.444967,154.974432 161.784002,155.153417 161.037369,155.153417 C159.912306,155.153417 159.000762,154.762208 158.302711,153.979777 C157.604661,153.197346 157.25564,152.161792 157.25564,150.873083 L157.25564,150.773362 Z M158.682418,150.942121 C158.682418,151.862627 158.895922,152.601578 159.322934,153.158996 C159.749947,153.716414 160.32142,153.995119 161.037369,153.995119 C161.758433,153.995119 162.331184,153.712579 162.75564,153.14749 C163.180095,152.582401 163.39232,151.791033 163.39232,150.773362 C163.39232,149.863083 163.17626,149.12541 162.744133,148.560322 C162.312007,147.995233 161.737977,147.712693 161.022028,147.712693 C160.32142,147.712693 159.75634,147.991398 159.32677,148.548815 C158.8972,149.106233 158.682418,149.903994 158.682418,150.942121 Z M169.920213,153.995119 C170.426492,153.995119 170.86884,153.841703 171.24727,153.534868 C171.625701,153.228032 171.835368,152.844494 171.87628,152.38424 L173.218678,152.38424 C173.193109,152.859835 173.029466,153.312411 172.727744,153.741981 C172.426023,154.17155 172.023307,154.514178 171.519585,154.769875 C171.015864,155.025571 170.482745,155.153417 169.920213,155.153417 C168.790036,155.153417 167.891277,154.776271 167.22391,154.021967 C166.556542,153.267663 166.222864,152.235944 166.222864,150.926779 L166.222864,150.688983 C166.222864,149.880982 166.371165,149.162487 166.667773,148.533474 C166.964381,147.904461 167.390108,147.416088 167.944969,147.068342 C168.49983,146.720595 169.155681,146.546724 169.912542,146.546724 C170.843277,146.546724 171.616746,146.825428 172.232974,147.382846 C172.849202,147.940264 173.177767,148.663874 173.218678,149.553697 L171.87628,149.553697 C171.835368,149.016735 171.632093,148.575665 171.266447,148.230475 C170.900802,147.885285 170.449504,147.712693 169.912542,147.712693 C169.191479,147.712693 168.632791,147.972221 168.236462,148.491284 C167.840132,149.010348 167.641971,149.760805 167.641971,150.742678 L167.641971,151.011158 C167.641971,151.967462 167.838854,152.703856 168.232626,153.220363 C168.626398,153.736869 169.188922,153.995119 169.920213,153.995119 Z M176.739598,144.690378 L176.739598,146.700141 L178.28911,146.700141 L178.28911,147.797072 L176.739598,147.797072 L176.739598,152.944212 C176.739598,153.276617 176.808635,153.525918 176.946711,153.69212 C177.084787,153.858323 177.320024,153.941423 177.65243,153.941423 C177.816075,153.941423 178.041084,153.91074 178.327464,153.849373 L178.327464,155 C177.954148,155.102279 177.591065,155.153417 177.238204,155.153417 C176.604077,155.153417 176.125932,154.961648 175.803755,154.578103 C175.481577,154.194559 175.320491,153.649934 175.320491,152.944212 L175.320491,147.797072 L173.809334,147.797072 L173.809334,146.700141 L175.320491,146.700141 L175.320491,144.690378 L176.739598,144.690378 Z M179.258055,150.773362 C179.258055,149.960248 179.417863,149.228967 179.737483,148.579499 C180.057103,147.93003 180.502008,147.428873 181.072211,147.076012 C181.642414,146.723152 182.293151,146.546724 183.024442,146.546724 C184.15462,146.546724 185.06872,146.937933 185.766771,147.720364 C186.464822,148.502794 186.813842,149.543462 186.813842,150.8424 L186.813842,150.942121 C186.813842,151.750121 186.659148,152.475009 186.349755,153.116806 C186.040363,153.758604 185.598015,154.258483 185.022698,154.616458 C184.447382,154.974432 183.786417,155.153417 183.039784,155.153417 C181.91472,155.153417 181.003177,154.762208 180.305126,153.979777 C179.607075,153.197346 179.258055,152.161792 179.258055,150.873083 L179.258055,150.773362 Z M180.684833,150.942121 C180.684833,151.862627 180.898336,152.601578 181.325349,153.158996 C181.752362,153.716414 182.323834,153.995119 183.039784,153.995119 C183.760847,153.995119 184.333598,153.712579 184.758054,153.14749 C185.18251,152.582401 185.394735,151.791033 185.394735,150.773362 C185.394735,149.863083 185.178675,149.12541 184.746548,148.560322 C184.314421,147.995233 183.740392,147.712693 183.024442,147.712693 C182.323834,147.712693 181.758754,147.991398 181.329184,148.548815 C180.899615,149.106233 180.684833,149.903994 180.684833,150.942121 Z M192.605333,147.973502 C192.390548,147.937704 192.157868,147.919806 191.907286,147.919806 C190.976552,147.919806 190.344991,148.316129 190.012586,149.108788 L190.012586,155 L188.593479,155 L188.593479,146.700141 L189.974232,146.700141 L189.997244,147.658997 C190.462612,146.917478 191.122298,146.546724 191.976324,146.546724 C192.252476,146.546724 192.462143,146.582521 192.605333,146.654116 L192.605333,147.973502 Z" id="Your-Doctor" fill="#616261"></path>
                <g id="Group-56" transform="translate(117.000000, 163.000000)" stroke="#3D83C4" stroke-width="0.3">
                    <polygon id="Stroke-46" points="6.6222 0.6186 7.9892 4.8266 12.4142 4.8266 8.8352 7.4266 10.2022 11.6346 6.6222 9.0336 3.0432 11.6346 4.4102 7.4266 0.8312 4.8266 5.2552 4.8266"></polygon>
                    <polygon id="Stroke-48" points="20.9943 0.6186 22.3613 4.8266 26.7853 4.8266 23.2063 7.4266 24.5733 11.6346 20.9943 9.0336 17.4143 11.6346 18.7813 7.4266 15.2023 4.8266 19.6273 4.8266"></polygon>
                    <polygon id="Stroke-50" points="35.3654 0.6186 36.7324 4.8266 41.1564 4.8266 37.5774 7.4266 38.9444 11.6346 35.3654 9.0336 31.7864 11.6346 33.1534 7.4266 29.5734 4.8266 33.9984 4.8266"></polygon>
                    <polygon id="Stroke-52" points="49.7365 0.6186 51.1035 4.8266 55.5285 4.8266 51.9485 7.4266 53.3155 11.6346 49.7365 9.0336 46.1575 11.6346 47.5245 7.4266 43.9455 4.8266 48.3695 4.8266"></polygon>
                    <polygon id="Stroke-54" points="64.1076 0.6186 65.4746 4.8266 69.8996 4.8266 66.3206 7.4266 67.6876 11.6346 64.1076 9.0336 60.5286 11.6346 61.8956 7.4266 58.3166 4.8266 62.7406 4.8266"></polygon>
                </g>
            </g>
        </g>
    </g>
</svg>