<svg id="Layer_1" data-name="Layer 1" xmlns="http://www.w3.org/2000/svg" viewBox="0 0 24 24"><defs><style>.cls-1,.cls-2{fill:none;}.cls-2{stroke:#000;stroke-miterlimit:10;stroke-width:1.5px;}</style></defs><title>profile</title><path class="cls-1" d="M0,0H24V24H0Z"/><path class="cls-2" d="M20.87,23V21.74a3.31,3.31,0,0,0-1.78-3l-3.85-2a1.52,1.52,0,0,1-.82-1.35V13.87a4.76,4.76,0,0,0,.37-.49A9.48,9.48,0,0,0,16,10.9a1.25,1.25,0,0,0,.86-1.18V8.06a1.25,1.25,0,0,0-.4-.92V4.74S16.92,1,12,1,7.57,4.73,7.57,4.73v2.4a1.25,1.25,0,0,0-.41.92V9.71a1.26,1.26,0,0,0,.56,1,8.27,8.27,0,0,0,1.46,3.1v1.52a1.54,1.54,0,0,1-.77,1.33l-3.6,2a3.37,3.37,0,0,0-1.68,2.92V23"/></svg>